<svg width="567" height="479" viewBox="0 0 567 479" fill="none" xmlns="http://www.w3.org/2000/svg">
<path d="M493.4 468.714C492.995 469.741 493.499 470.903 494.527 471.308L511.273 477.908C512.301 478.313 513.462 477.808 513.867 476.78C514.272 475.753 513.768 474.591 512.74 474.186L497.854 468.32L503.721 453.434C504.126 452.406 503.621 451.245 502.594 450.84C501.566 450.435 500.405 450.94 500 451.967L493.4 468.714ZM287.601 242.143L288 240.183L287.601 242.143ZM41.4933 0.80619C40.6474 1.51656 40.5376 2.77811 41.248 3.62396C41.9583 4.4698 43.2199 4.57963 44.0657 3.86926L41.4933 0.80619ZM36.8951 10.6052C37.6683 9.81634 37.6555 8.55008 36.8666 7.77693C36.0778 7.00379 34.8115 7.01654 34.0384 7.80541L36.8951 10.6052ZM33.3667 8.4955C32.5991 9.28971 32.6206 10.5559 33.4148 11.3235C34.209 12.0912 35.4751 12.0697 36.2428 11.2754L33.3667 8.4955ZM29.6469 18.6039C30.3564 17.7573 30.2452 16.4958 29.3986 15.7864C28.552 15.0769 27.2906 15.1881 26.5811 16.0347L29.6469 18.6039ZM25.953 16.7894C25.2494 17.6409 25.3693 18.9016 26.2207 19.6052C27.0722 20.3088 28.3328 20.1889 29.0364 19.3375L25.953 16.7894ZM23.0604 27.1279C23.6996 26.2271 23.4876 24.9787 22.5868 24.3394C21.686 23.7002 20.4376 23.9122 19.7983 24.813L23.0604 27.1279ZM19.2031 25.6588C18.5709 26.5646 18.7927 27.8113 19.6985 28.4435C20.6043 29.0756 21.851 28.8538 22.4832 27.948L19.2031 25.6588ZM17.2159 36.175C17.7725 35.2209 17.4503 33.9963 16.4963 33.4396C15.5422 32.883 14.3175 33.2052 13.7609 34.1593L17.2159 36.175ZM13.2577 35.0305C12.7093 35.9893 13.042 37.2111 14.0008 37.7595C14.9597 38.3079 16.1815 37.9752 16.7299 37.0164L13.2577 35.0305ZM12.269 45.7092C12.7262 44.7037 12.2817 43.5179 11.2762 43.0607C10.2707 42.6035 9.08493 43.048 8.62773 44.0535L12.269 45.7092ZM8.20928 44.986C7.76215 45.9961 8.21846 47.1773 9.22849 47.6245C10.2385 48.0716 11.4198 47.6153 11.8669 46.6053L8.20928 44.986ZM8.39127 55.712C8.72841 54.6601 8.14902 53.5341 7.09716 53.1969C6.0453 52.8598 4.91929 53.4392 4.58215 54.4911L8.39127 55.712ZM4.27975 55.4531C3.95448 56.5087 4.54652 57.6281 5.60212 57.9534C6.65771 58.2786 7.77712 57.6866 8.10239 56.631L4.27975 55.4531ZM5.80208 66.0464C5.99783 64.9593 5.27525 63.9194 4.18817 63.7236C3.10108 63.5279 2.06114 64.2504 1.86539 65.3375L5.80208 66.0464ZM1.69138 66.3404C1.50949 67.4299 2.24525 68.4606 3.33474 68.6424C4.42423 68.8243 5.45489 68.0886 5.63678 66.9991L1.69138 66.3404ZM4.67472 76.6229C4.71036 75.5189 3.84428 74.5951 2.74029 74.5594C1.6363 74.5238 0.712439 75.3899 0.6768 76.4939L4.67472 76.6229ZM0.650747 77.5211C0.630388 78.6255 1.50916 79.5372 2.61354 79.5576C3.71793 79.578 4.62971 78.6992 4.65007 77.5948L0.650747 77.5211ZM5.14556 87.2474C5.01177 86.151 4.01447 85.3706 2.91803 85.5044C1.8216 85.6382 1.04122 86.6355 1.17502 87.732L5.14556 87.2474ZM1.30829 88.7629C1.45771 89.8573 2.46604 90.6234 3.56045 90.474C4.65487 90.3246 5.42094 89.3162 5.27152 88.2218L1.30829 88.7629ZM7.24397 97.6951C6.94517 96.6317 5.8409 96.0119 4.77752 96.3107C3.71413 96.6095 3.09431 97.7137 3.3931 98.7771L7.24397 97.6951ZM3.67118 99.7422C3.98399 100.802 5.09635 101.407 6.1557 101.094C7.21505 100.781 7.82024 99.6688 7.50743 98.6094L3.67118 99.7422ZM10.8522 107.705C10.4062 106.695 9.22542 106.237 8.2149 106.683C7.20437 107.129 6.74673 108.31 7.19273 109.32L10.8522 107.705ZM7.59673 110.221C8.0546 111.226 9.24066 111.67 10.2459 111.212C11.2511 110.754 11.6947 109.568 11.2369 108.563L7.59673 110.221ZM15.7875 117.182C15.218 116.235 13.9891 115.93 13.0426 116.499C12.0962 117.069 11.7906 118.298 12.3601 119.244L15.7875 117.182ZM12.8693 120.081C13.4484 121.021 14.6804 121.314 15.6209 120.735C16.5615 120.156 16.8545 118.924 16.2754 117.983L12.8693 120.081ZM21.8279 126.058C21.1591 125.179 19.9043 125.009 19.0252 125.678C18.1461 126.346 17.9756 127.601 18.6444 128.48L21.8279 126.058ZM19.2514 129.271C19.928 130.144 21.1843 130.303 22.0574 129.627C22.9305 128.95 23.0899 127.694 22.4133 126.821L19.2514 129.271ZM28.681 134.24C27.9349 133.425 26.6698 133.37 25.8553 134.116C25.0408 134.862 24.9854 136.127 25.7315 136.942L28.681 134.24ZM26.4411 137.71C27.1937 138.519 28.4592 138.564 29.2677 137.812C30.0763 137.059 30.1217 135.794 29.3692 134.985L26.4411 137.71ZM36.2191 141.84C35.4125 141.085 34.1468 141.128 33.3923 141.934C32.6377 142.741 32.6799 144.007 33.4866 144.761L36.2191 141.84ZM34.2335 145.455C35.0451 146.205 36.3104 146.154 37.0597 145.343C37.809 144.531 37.7585 143.266 36.947 142.516L34.2335 145.455ZM44.3639 148.958C43.5094 148.258 42.2493 148.384 41.5494 149.238C40.8495 150.093 40.9748 151.353 41.8293 152.053L44.3639 148.958ZM42.5947 152.676C43.453 153.371 44.7124 153.239 45.4077 152.381C46.103 151.523 45.9709 150.263 45.1127 149.568L42.5947 152.676ZM53.0664 155.672C52.1735 155.022 50.9226 155.219 50.2722 156.111C49.6219 157.004 49.8185 158.255 50.7113 158.906L53.0664 155.672ZM51.5148 159.488C52.4106 160.134 53.6607 159.932 54.3069 159.036C54.9531 158.14 54.7508 156.89 53.855 156.244L51.5148 159.488ZM61.8082 161.723C60.8858 161.116 59.6454 161.371 59.0378 162.293C58.4301 163.215 58.6853 164.456 59.6077 165.063L61.8082 161.723ZM60.4563 165.62C61.3812 166.224 62.6205 165.964 63.2244 165.039C63.8283 164.114 63.5681 162.875 62.6432 162.271L60.4563 165.62ZM71.074 167.546C70.127 166.978 68.8984 167.285 68.3299 168.232C67.7614 169.179 68.0683 170.407 69.0153 170.976L71.074 167.546ZM69.8474 171.473C70.7964 172.039 72.0239 171.728 72.5892 170.779C73.1545 169.83 72.8435 168.602 71.8945 168.037L69.8474 171.473ZM80.4384 172.936C79.4714 172.402 78.2547 172.753 77.7207 173.719C77.1867 174.686 77.5377 175.903 78.5046 176.437L80.4384 172.936ZM79.4043 176.932C80.3729 177.463 81.5885 177.108 82.1195 176.14C82.6504 175.171 82.2957 173.956 81.3271 173.425L79.4043 176.932ZM90.0533 178.043C89.0698 177.54 87.8649 177.93 87.3621 178.913C86.8593 179.897 87.249 181.101 88.2324 181.604L90.0533 178.043ZM89.1011 182.047C90.0859 182.547 91.2897 182.154 91.7899 181.169C92.2901 180.185 91.8973 178.981 90.9125 178.481L89.1011 182.047ZM99.7953 182.848C98.798 182.373 97.6046 182.796 97.1298 183.794C96.655 184.791 97.0785 185.984 98.0758 186.459L99.7953 182.848ZM99.0025 186.899C100.001 187.371 101.193 186.945 101.666 185.946C102.138 184.948 101.711 183.755 100.713 183.283L99.0025 186.899ZM109.722 187.417C108.713 186.968 107.53 187.421 107.081 188.43C106.632 189.439 107.085 190.622 108.094 191.071L109.722 187.417ZM108.981 191.465C109.991 191.912 111.172 191.456 111.62 190.446C112.067 189.436 111.611 188.254 110.601 187.807L108.981 191.465ZM119.639 191.698C118.62 191.271 117.448 191.751 117.022 192.77C116.596 193.789 117.076 194.961 118.095 195.387L119.639 191.698ZM119.031 195.778C120.051 196.203 121.222 195.72 121.646 194.7C122.07 193.68 121.588 192.51 120.568 192.085L119.031 195.778ZM129.927 195.875C128.899 195.47 127.738 195.975 127.333 197.002C126.928 198.03 127.432 199.191 128.46 199.596L129.927 195.875ZM129.352 199.947C130.38 200.35 131.54 199.843 131.944 198.815C132.347 197.787 131.84 196.626 130.812 196.223L129.352 199.947ZM139.878 199.69C138.843 199.304 137.691 199.83 137.305 200.865C136.919 201.9 137.445 203.052 138.48 203.438L139.878 199.69ZM139.414 203.786C140.45 204.17 141.601 203.642 141.985 202.607C142.37 201.571 141.842 200.42 140.806 200.036L139.414 203.786ZM150.304 203.476C149.262 203.108 148.12 203.654 147.752 204.695C147.384 205.737 147.93 206.879 148.971 207.247L150.304 203.476ZM149.948 207.592C150.99 207.958 152.132 207.411 152.499 206.369C152.865 205.327 152.318 204.185 151.276 203.818L149.948 207.592ZM160.512 206.993C159.465 206.641 158.331 207.205 157.979 208.252C157.628 209.299 158.191 210.433 159.238 210.785L160.512 206.993ZM160.162 211.095C161.21 211.445 162.343 210.88 162.694 209.833C163.044 208.785 162.479 207.652 161.431 207.301L160.162 211.095ZM170.808 210.369C169.756 210.033 168.63 210.613 168.293 211.665C167.957 212.717 168.536 213.842 169.588 214.179L170.808 210.369ZM170.55 214.486C171.602 214.821 172.727 214.24 173.062 213.188C173.398 212.135 172.817 211.01 171.764 210.675L170.55 214.486ZM181.516 213.715C180.459 213.392 179.341 213.988 179.019 215.044C178.697 216.101 179.292 217.218 180.349 217.541L181.516 213.715ZM181.336 217.841C182.393 218.162 183.51 217.565 183.831 216.508C184.152 215.451 183.555 214.334 182.498 214.014L181.336 217.841ZM191.708 216.754C190.647 216.445 189.537 217.054 189.228 218.114C188.918 219.175 189.527 220.285 190.587 220.594L191.708 216.754ZM191.528 220.868C192.589 221.177 193.699 220.567 194.007 219.506C194.315 218.445 193.705 217.336 192.645 217.027L191.528 220.868ZM202.175 219.742C201.111 219.445 200.008 220.067 199.711 221.13C199.414 222.194 200.035 223.298 201.099 223.595L202.175 219.742ZM202.072 223.866C203.136 224.162 204.239 223.539 204.535 222.475C204.831 221.411 204.208 220.308 203.144 220.012L202.072 223.866ZM213 222.699C211.933 222.414 210.837 223.048 210.551 224.115C210.266 225.182 210.9 226.278 211.967 226.564L213 222.699ZM212.973 226.832C214.04 227.116 215.136 226.481 215.42 225.414C215.704 224.346 215.069 223.251 214.002 222.967L212.973 226.832ZM223.311 225.4C222.242 225.125 221.152 225.77 220.877 226.84C220.602 227.91 221.247 229 222.317 229.274L223.311 225.4ZM223.264 229.517C224.334 229.791 225.423 229.145 225.697 228.075C225.97 227.005 225.325 225.915 224.255 225.642L223.264 229.517ZM233.826 228.046C232.754 227.781 231.67 228.436 231.406 229.509C231.141 230.581 231.796 231.665 232.869 231.929L233.826 228.046ZM233.843 232.169C234.916 232.433 235.999 231.777 236.263 230.704C236.526 229.632 235.87 228.548 234.798 228.285L233.843 232.169ZM244.652 230.662C243.577 230.408 242.5 231.073 242.245 232.147C241.99 233.222 242.655 234.3 243.73 234.555L244.652 230.662ZM244.733 234.792C245.808 235.046 246.885 234.38 247.139 233.305C247.393 232.23 246.727 231.153 245.652 230.899L244.733 234.792ZM255.251 233.126C254.174 232.88 253.102 233.554 252.856 234.631C252.611 235.708 253.285 236.78 254.362 237.026L255.251 233.126ZM255.306 237.241C256.383 237.485 257.454 236.811 257.699 235.734C257.944 234.657 257.269 233.585 256.192 233.34L255.306 237.241ZM265.726 235.471C264.647 235.234 263.58 235.916 263.343 236.995C263.106 238.074 263.788 239.14 264.867 239.378L265.726 235.471ZM265.836 239.59C266.915 239.826 267.981 239.143 268.217 238.064C268.454 236.985 267.77 235.919 266.691 235.683L265.836 239.59ZM276.472 237.789C275.391 237.56 274.33 238.251 274.101 239.331C273.872 240.412 274.563 241.473 275.643 241.702L276.472 237.789ZM276.636 241.912C277.717 242.14 278.778 241.449 279.006 240.368C279.234 239.287 278.543 238.226 277.462 237.998L276.636 241.912ZM287.492 240.079C286.41 239.859 285.353 240.557 285.132 241.639C284.912 242.722 285.61 243.778 286.692 243.999L287.492 240.079ZM287.704 244.205C288.787 244.426 289.843 243.728 290.064 242.645C290.285 241.563 289.586 240.507 288.504 240.286L287.704 244.205ZM298.488 242.361C297.408 242.132 296.346 242.823 296.117 243.903C295.888 244.984 296.579 246.046 297.66 246.274L298.488 242.361ZM298.644 246.483C299.724 246.713 300.786 246.023 301.016 244.943C301.245 243.862 300.556 242.8 299.475 242.571L298.644 246.483ZM309.236 244.683C308.157 244.445 307.09 245.127 306.852 246.206C306.614 247.284 307.296 248.352 308.374 248.589L309.236 244.683ZM309.336 248.802C310.415 249.041 311.483 248.36 311.721 247.281C311.96 246.203 311.279 245.135 310.201 244.896L309.336 248.802ZM319.945 247.093C318.869 246.846 317.796 247.518 317.548 248.595C317.301 249.671 317.973 250.744 319.05 250.991L319.945 247.093ZM320.043 251.22C321.119 251.468 322.193 250.797 322.441 249.72C322.689 248.644 322.018 247.57 320.942 247.322L320.043 251.22ZM330.782 249.634C329.708 249.377 328.628 250.039 328.371 251.113C328.114 252.187 328.776 253.267 329.85 253.524L330.782 249.634ZM330.819 253.756C331.893 254.014 332.973 253.353 333.231 252.279C333.489 251.205 332.828 250.125 331.754 249.867L330.819 253.756ZM341.349 252.217C340.277 251.95 339.191 252.602 338.924 253.673C338.656 254.745 339.308 255.831 340.38 256.098L341.349 252.217ZM341.324 256.334C342.395 256.603 343.481 255.952 343.75 254.88C344.018 253.809 343.367 252.723 342.296 252.454L341.324 256.334ZM352.179 254.98C351.11 254.701 350.017 255.342 349.739 256.411C349.46 257.48 350.101 258.572 351.17 258.851L352.179 254.98ZM352.142 259.105C353.211 259.384 354.304 258.745 354.583 257.676C354.863 256.608 354.224 255.515 353.155 255.235L352.142 259.105ZM362.784 257.806C361.718 257.515 360.619 258.144 360.329 259.21C360.039 260.276 360.667 261.375 361.733 261.665L362.784 257.806ZM362.679 261.923C363.744 262.214 364.844 261.587 365.135 260.521C365.426 259.456 364.799 258.356 363.733 258.065L362.679 261.923ZM373.438 260.773C372.376 260.47 371.269 261.086 370.967 262.148C370.664 263.211 371.28 264.317 372.343 264.62L373.438 260.773ZM373.317 264.898C374.379 265.201 375.486 264.587 375.789 263.525C376.093 262.463 375.478 261.355 374.416 261.052L373.317 264.898ZM384.049 263.865C382.99 263.549 381.876 264.151 381.561 265.21C381.245 266.268 381.847 267.382 382.906 267.698L384.049 263.865ZM383.85 267.98C384.908 268.297 386.022 267.696 386.339 266.638C386.656 265.579 386.055 264.465 384.997 264.148L383.85 267.98ZM394.562 267.074C393.508 266.744 392.386 267.332 392.057 268.386C391.727 269.44 392.315 270.562 393.369 270.892L394.562 267.074ZM394.34 271.196C395.394 271.527 396.517 270.941 396.848 269.887C397.178 268.833 396.592 267.71 395.538 267.38L394.34 271.196ZM405.133 270.459C404.084 270.115 402.954 270.686 402.609 271.736C402.265 272.785 402.837 273.915 403.886 274.26L405.133 270.459ZM404.824 274.568C405.873 274.914 407.004 274.344 407.349 273.295C407.695 272.246 407.125 271.115 406.076 270.769L404.824 274.568ZM415.536 273.959C414.491 273.598 413.353 274.153 412.993 275.197C412.632 276.241 413.187 277.38 414.231 277.74L415.536 273.959ZM415.195 278.073C416.238 278.435 417.378 277.882 417.739 276.838C418.101 275.795 417.548 274.655 416.505 274.294L415.195 278.073ZM426.008 277.667C424.97 277.29 423.822 277.825 423.445 278.863C423.068 279.901 423.603 281.049 424.641 281.426L426.008 277.667ZM425.567 281.764C426.605 282.143 427.753 281.609 428.132 280.571C428.511 279.534 427.977 278.386 426.94 278.007L425.567 281.764ZM436.318 281.518C435.287 281.122 434.13 281.637 433.734 282.668C433.338 283.7 433.854 284.856 434.885 285.252L436.318 281.518ZM435.833 285.617C436.864 286.015 438.022 285.502 438.419 284.471C438.817 283.441 438.304 282.283 437.273 281.885L435.833 285.617ZM446.614 285.583C445.59 285.167 444.424 285.66 444.008 286.683C443.592 287.706 444.085 288.873 445.108 289.289L446.614 285.583ZM446.014 289.658C447.037 290.076 448.205 289.585 448.622 288.563C449.04 287.54 448.549 286.373 447.527 285.955L446.014 289.658ZM456.832 289.86C455.817 289.423 454.64 289.89 454.203 290.904C453.765 291.919 454.233 293.095 455.247 293.533L456.832 289.86ZM456.171 293.933C457.185 294.373 458.363 293.908 458.802 292.894C459.242 291.881 458.777 290.703 457.764 290.264L456.171 293.933ZM466.848 294.319C465.844 293.858 464.657 294.298 464.196 295.301C463.735 296.305 464.174 297.493 465.178 297.954L466.848 294.319ZM466.055 298.358C467.058 298.821 468.246 298.384 468.71 297.381C469.173 296.378 468.736 295.19 467.733 294.727L466.055 298.358ZM476.942 299.116C475.951 298.629 474.752 299.037 474.265 300.028C473.777 301.019 474.185 302.218 475.177 302.706L476.942 299.116ZM476.065 303.144C477.055 303.634 478.254 303.229 478.744 302.239C479.234 301.249 478.829 300.049 477.839 299.559L476.065 303.144ZM486.756 304.12C485.779 303.603 484.569 303.976 484.053 304.953C483.536 305.929 483.909 307.139 484.886 307.656L486.756 304.12ZM485.783 308.132C486.758 308.651 487.969 308.281 488.488 307.306C489.008 306.332 488.638 305.12 487.663 304.601L485.783 308.132ZM496.433 309.44C495.474 308.891 494.253 309.224 493.704 310.183C493.156 311.142 493.488 312.363 494.447 312.912L496.433 309.44ZM495.283 313.392C496.24 313.943 497.463 313.614 498.014 312.657C498.566 311.7 498.237 310.477 497.28 309.926L495.283 313.392ZM506.021 315.165C505.084 314.58 503.851 314.865 503.266 315.803C502.681 316.74 502.967 317.973 503.904 318.558L506.021 315.165ZM504.736 319.08C505.671 319.668 506.906 319.387 507.494 318.452C508.082 317.517 507.801 316.282 506.866 315.694L504.736 319.08ZM515.307 321.24C514.397 320.614 513.152 320.845 512.526 321.756C511.901 322.666 512.132 323.911 513.042 324.537L515.307 321.24ZM513.864 325.104C514.772 325.734 516.018 325.508 516.648 324.6C517.277 323.693 517.051 322.447 516.144 321.817L513.864 325.104ZM524.273 327.735C523.396 327.063 522.14 327.23 521.469 328.107C520.797 328.984 520.964 330.24 521.841 330.911L524.273 327.735ZM522.643 331.528C523.517 332.204 524.773 332.044 525.449 331.171C526.125 330.297 525.965 329.041 525.091 328.365L522.643 331.528ZM532.872 334.733C532.037 334.009 530.774 334.099 530.05 334.933C529.327 335.767 529.416 337.03 530.25 337.754L532.872 334.733ZM531.019 338.425C531.849 339.155 533.113 339.073 533.842 338.243C534.571 337.414 534.489 336.15 533.66 335.421L531.019 338.425ZM541.016 342.328C540.238 341.544 538.972 341.54 538.188 342.318C537.404 343.097 537.4 344.363 538.178 345.147L541.016 342.328ZM538.896 345.875C539.668 346.665 540.934 346.679 541.724 345.907C542.514 345.134 542.528 343.868 541.756 343.078L538.896 345.875ZM548.554 350.619C547.85 349.768 546.59 349.648 545.738 350.351C544.887 351.055 544.766 352.315 545.47 353.167L548.554 350.619ZM546.113 353.953C546.808 354.811 548.067 354.943 548.926 354.248C549.784 353.553 549.916 352.293 549.221 351.435L546.113 353.953ZM555.243 359.691C554.642 358.765 553.403 358.502 552.477 359.104C551.55 359.706 551.287 360.944 551.889 361.87L555.243 359.691ZM552.428 362.711C553.019 363.645 554.254 363.923 555.188 363.332C556.121 362.741 556.399 361.506 555.808 360.573L552.428 362.711ZM560.74 369.583C560.276 368.58 559.088 368.144 558.085 368.607C557.082 369.071 556.646 370.259 557.109 371.262L560.74 369.583ZM557.513 372.151C557.962 373.16 559.144 373.615 560.153 373.166C561.162 372.717 561.616 371.535 561.167 370.525L557.513 372.151ZM564.609 380.238C564.327 379.17 563.232 378.533 562.165 378.815C561.097 379.097 560.459 380.191 560.741 381.259L564.609 380.238ZM560.977 382.184C561.241 383.257 562.324 383.912 563.397 383.649C564.469 383.385 565.125 382.302 564.862 381.23L560.977 382.184ZM566.401 391.47C566.341 390.367 565.398 389.521 564.295 389.582C563.192 389.642 562.347 390.585 562.407 391.688L566.401 391.47ZM562.451 392.655C562.489 393.759 563.415 394.623 564.519 394.584C565.623 394.545 566.487 393.619 566.448 392.515L562.451 392.655ZM565.789 402.878C565.967 401.788 565.227 400.76 564.137 400.581C563.047 400.403 562.019 401.142 561.841 402.233L565.789 402.878ZM561.676 403.181C561.477 404.268 562.196 405.31 563.282 405.51C564.369 405.709 565.411 404.99 565.611 403.904L561.676 403.181ZM562.779 413.892C563.177 412.862 562.663 411.704 561.632 411.307C560.602 410.91 559.444 411.423 559.047 412.454L562.779 413.892ZM558.696 413.343C558.281 414.366 558.774 415.532 559.798 415.947C560.821 416.362 561.988 415.869 562.403 414.845L558.696 413.343ZM557.764 424.04C558.337 423.095 558.035 421.865 557.091 421.292C556.146 420.72 554.916 421.021 554.344 421.965L557.764 424.04ZM553.835 422.79C553.249 423.726 553.532 424.96 554.468 425.547C555.404 426.133 556.639 425.85 557.225 424.914L553.835 422.79ZM551.195 433.227C551.899 432.376 551.78 431.115 550.929 430.411C550.078 429.707 548.817 429.826 548.113 430.677L551.195 433.227ZM547.478 431.435C546.764 432.278 546.867 433.54 547.71 434.254C548.552 434.968 549.814 434.864 550.529 434.022L547.478 431.435ZM543.489 441.455C544.289 440.694 544.32 439.428 543.558 438.628C542.796 437.828 541.53 437.797 540.73 438.559L543.489 441.455ZM539.998 439.249C539.19 440.003 539.147 441.269 539.901 442.076C540.655 442.884 541.92 442.927 542.728 442.173L539.998 439.249ZM534.984 448.784C535.853 448.103 536.006 446.846 535.325 445.976C534.643 445.107 533.386 444.954 532.517 445.636L534.984 448.784ZM531.758 446.226C530.883 446.9 530.721 448.156 531.395 449.031C532.07 449.906 533.326 450.068 534.201 449.393L531.758 446.226ZM525.931 455.3C526.852 454.69 527.103 453.449 526.493 452.528C525.883 451.608 524.642 451.356 523.721 451.966L525.931 455.3ZM522.912 452.499C521.988 453.103 521.728 454.343 522.333 455.267C522.937 456.192 524.177 456.451 525.101 455.847L522.912 452.499ZM516.437 461.138C517.396 460.59 517.73 459.368 517.182 458.409C516.635 457.45 515.413 457.116 514.454 457.664L516.437 461.138ZM513.609 458.143C512.647 458.686 512.307 459.905 512.849 460.868C513.392 461.83 514.612 462.17 515.574 461.627L513.609 458.143ZM506.606 466.376C507.595 465.884 507.997 464.684 507.505 463.695C507.013 462.706 505.813 462.303 504.824 462.795L506.606 466.376ZM503.954 463.226C502.962 463.713 502.554 464.912 503.042 465.903C503.529 466.894 504.728 467.303 505.719 466.815L503.954 463.226ZM496.532 471.075C497.544 470.632 498.005 469.453 497.563 468.441C497.121 467.429 495.941 466.967 494.929 467.41L496.532 471.075ZM43.0604 2.10452C41.7998 0.551798 41.7998 0.551818 41.7998 0.551839C41.7998 0.551846 41.7997 0.551867 41.7997 0.551881C41.7997 0.55191 41.7997 0.55194 41.7996 0.551971C41.7995 0.552033 41.7995 0.5521 41.7994 0.552172C41.7992 0.552316 41.799 0.552479 41.7988 0.552661C41.7983 0.553026 41.7978 0.553467 41.7971 0.553986C41.7959 0.555023 41.7942 0.556367 41.7922 0.558019C41.7881 0.561322 41.7826 0.565852 41.7756 0.571606C41.7615 0.583113 41.7415 0.599512 41.7158 0.620763C41.6643 0.663265 41.5897 0.72518 41.4933 0.80619L44.0657 3.86926C44.1534 3.79565 44.2193 3.74096 44.2622 3.70551C44.2837 3.68779 44.2994 3.67488 44.3093 3.66682C44.3142 3.66279 44.3176 3.65998 44.3196 3.65838C44.3206 3.65758 44.3212 3.65708 44.3214 3.65689C44.3215 3.6568 44.3215 3.65678 44.3215 3.65684C44.3214 3.65687 44.3214 3.65691 44.3213 3.65698C44.3213 3.65701 44.3212 3.65705 44.3212 3.6571C44.3211 3.65712 44.3211 3.65714 44.3211 3.65716C44.3211 3.65718 44.321 3.6572 44.321 3.6572C44.321 3.65722 44.321 3.65724 43.0604 2.10452ZM34.0384 7.80541C33.8177 8.03058 33.5937 8.26062 33.3667 8.4955L36.2428 11.2754C36.4633 11.0473 36.6808 10.8239 36.8951 10.6052L34.0384 7.80541ZM26.5811 16.0347C26.3725 16.2836 26.1631 16.5352 25.953 16.7894L29.0364 19.3375C29.2406 19.0904 29.4442 18.8458 29.6469 18.6039L26.5811 16.0347ZM19.7983 24.813C19.5997 25.0928 19.4013 25.3748 19.2031 25.6588L22.4832 27.948C22.6753 27.6727 22.8678 27.3993 23.0604 27.1279L19.7983 24.813ZM13.7609 34.1593C13.5924 34.4482 13.4246 34.7386 13.2577 35.0305L16.7299 37.0164C16.8911 36.7345 17.0531 36.454 17.2159 36.175L13.7609 34.1593ZM8.62773 44.0535C8.48696 44.363 8.34746 44.6739 8.20928 44.986L11.8669 46.6053C11.9996 46.3054 12.1337 46.0067 12.269 45.7092L8.62773 44.0535ZM4.58215 54.4911C4.4797 54.8107 4.37888 55.1314 4.27975 55.4531L8.10239 56.631C8.19706 56.3237 8.29337 56.0174 8.39127 55.712L4.58215 54.4911ZM1.86539 65.3375C1.80535 65.6709 1.74734 66.0052 1.69138 66.3404L5.63678 66.9991C5.68992 66.6808 5.74503 66.3632 5.80208 66.0464L1.86539 65.3375ZM0.6768 76.4939C0.665769 76.8356 0.657073 77.178 0.650747 77.5211L4.65007 77.5948C4.65605 77.2702 4.66428 76.9463 4.67472 76.6229L0.6768 76.4939ZM1.17502 87.732C1.21689 88.0751 1.2613 88.4187 1.30829 88.7629L5.27152 88.2218C5.22711 87.8965 5.18513 87.5717 5.14556 87.2474L1.17502 87.732ZM3.3931 98.7771C3.4834 99.0985 3.57609 99.4202 3.67118 99.7422L7.50743 98.6094C7.41732 98.3043 7.32951 97.9995 7.24397 97.6951L3.3931 98.7771ZM7.19273 109.32C7.32518 109.62 7.45984 109.921 7.59673 110.221L11.2369 108.563C11.1065 108.277 10.9783 107.991 10.8522 107.705L7.19273 109.32ZM12.3601 119.244C12.5278 119.523 12.6975 119.802 12.8693 120.081L16.2754 117.983C16.1108 117.716 15.9481 117.449 15.7875 117.182L12.3601 119.244ZM18.6444 128.48C18.8448 128.744 19.0472 129.007 19.2514 129.271L22.4133 126.821C22.2163 126.567 22.0211 126.312 21.8279 126.058L18.6444 128.48ZM25.7315 136.942C25.9662 137.198 26.2027 137.454 26.4411 137.71L29.3692 134.985C29.1379 134.736 28.9085 134.488 28.681 134.24L25.7315 136.942ZM33.4866 144.761C33.7339 144.993 33.9829 145.224 34.2335 145.455L36.947 142.516C36.7027 142.291 36.4601 142.065 36.2191 141.84L33.4866 144.761ZM41.8293 152.053C42.0831 152.261 42.3382 152.468 42.5947 152.676L45.1127 149.568C44.8617 149.365 44.6121 149.161 44.3639 148.958L41.8293 152.053ZM50.7113 158.906C50.9779 159.1 51.2457 159.294 51.5148 159.488L53.855 156.244C53.5908 156.053 53.328 155.863 53.0664 155.672L50.7113 158.906ZM59.6077 165.063C59.8893 165.249 60.1722 165.435 60.4563 165.62L62.6432 162.271C62.3636 162.088 62.0853 161.906 61.8082 161.723L59.6077 165.063ZM69.0153 170.976C69.2917 171.142 69.569 171.308 69.8474 171.473L71.8945 168.037C71.62 167.874 71.3465 167.71 71.074 167.546L69.0153 170.976ZM78.5046 176.437C78.8035 176.602 79.1034 176.767 79.4043 176.932L81.3271 173.425C81.0298 173.262 80.7335 173.099 80.4384 172.936L78.5046 176.437ZM88.2324 181.604C88.5211 181.752 88.8106 181.899 89.1011 182.047L90.9125 178.481C90.6252 178.335 90.3388 178.189 90.0533 178.043L88.2324 181.604ZM98.0758 186.459C98.3838 186.606 98.6927 186.752 99.0025 186.899L100.713 183.283C100.406 183.138 100.1 182.993 99.7953 182.848L98.0758 186.459ZM108.094 191.071C108.389 191.202 108.685 191.334 108.981 191.465L110.601 187.807C110.307 187.677 110.014 187.547 109.722 187.417L108.094 191.071ZM118.095 195.387C118.406 195.518 118.718 195.648 119.031 195.778L120.568 192.085C120.258 191.956 119.948 191.827 119.639 191.698L118.095 195.387ZM128.46 199.596C128.757 199.713 129.054 199.83 129.352 199.947L130.812 196.223C130.516 196.107 130.221 195.991 129.927 195.875L128.46 199.596ZM138.48 203.438C138.791 203.554 139.102 203.67 139.414 203.786L140.806 200.036C140.496 199.921 140.187 199.806 139.878 199.69L138.48 203.438ZM148.971 207.247C149.296 207.362 149.622 207.477 149.948 207.592L151.276 203.818C150.951 203.704 150.627 203.59 150.304 203.476L148.971 207.247ZM159.238 210.785C159.546 210.888 159.854 210.992 160.162 211.095L161.431 207.301C161.124 207.199 160.818 207.096 160.512 206.993L159.238 210.785ZM169.588 214.179C169.908 214.281 170.229 214.384 170.55 214.486L171.764 210.675C171.445 210.573 171.126 210.471 170.808 210.369L169.588 214.179ZM180.349 217.541C180.677 217.641 181.006 217.741 181.336 217.841L182.498 214.014C182.17 213.914 181.843 213.814 181.516 213.715L180.349 217.541ZM190.587 220.594C190.901 220.686 191.214 220.777 191.528 220.868L192.645 217.027C192.332 216.936 192.019 216.845 191.708 216.754L190.587 220.594ZM201.099 223.595C201.423 223.685 201.747 223.775 202.072 223.866L203.144 220.012C202.821 219.922 202.497 219.832 202.175 219.742L201.099 223.595ZM211.967 226.564C212.302 226.653 212.637 226.743 212.973 226.832L214.002 222.967C213.668 222.878 213.334 222.788 213 222.699L211.967 226.564ZM222.317 229.274C222.632 229.355 222.948 229.436 223.264 229.517L224.255 225.642C223.94 225.561 223.625 225.481 223.311 225.4L222.317 229.274ZM232.869 231.929C233.193 232.009 233.518 232.089 233.843 232.169L234.798 228.285C234.473 228.205 234.15 228.125 233.826 228.046L232.869 231.929ZM243.73 234.555C244.064 234.634 244.398 234.713 244.733 234.792L245.652 230.899C245.318 230.82 244.985 230.741 244.652 230.662L243.73 234.555ZM254.362 237.026C254.676 237.097 254.99 237.169 255.306 237.241L256.192 233.34C255.878 233.269 255.564 233.197 255.251 233.126L254.362 237.026ZM264.867 239.378C265.19 239.448 265.513 239.519 265.836 239.59L266.691 235.683C266.369 235.612 266.047 235.541 265.726 235.471L264.867 239.378ZM275.643 241.702C275.974 241.772 276.305 241.842 276.636 241.912L277.462 237.998C277.132 237.929 276.802 237.859 276.472 237.789L275.643 241.702ZM286.692 243.999C286.862 244.033 287.032 244.068 287.201 244.102L288 240.183C287.83 240.148 287.661 240.114 287.492 240.079L286.692 243.999ZM287.201 244.102C287.369 244.137 287.537 244.171 287.704 244.205L288.504 240.286C288.336 240.251 288.168 240.217 288 240.183L287.201 244.102ZM297.66 246.274C297.988 246.344 298.316 246.413 298.644 246.483L299.475 242.571C299.147 242.501 298.818 242.431 298.488 242.361L297.66 246.274ZM308.374 248.589C308.695 248.66 309.016 248.731 309.336 248.802L310.201 244.896C309.879 244.825 309.558 244.754 309.236 244.683L308.374 248.589ZM319.05 250.991C319.381 251.068 319.712 251.144 320.043 251.22L320.942 247.322C320.61 247.246 320.278 247.169 319.945 247.093L319.05 250.991ZM329.85 253.524C330.174 253.601 330.496 253.679 330.819 253.756L331.754 249.867C331.43 249.789 331.106 249.712 330.782 249.634L329.85 253.524ZM340.38 256.098C340.695 256.177 341.009 256.256 341.324 256.334L342.296 252.454C341.98 252.375 341.665 252.296 341.349 252.217L340.38 256.098ZM351.17 258.851C351.494 258.935 351.818 259.02 352.142 259.105L353.155 255.235C352.83 255.15 352.504 255.065 352.179 254.98L351.17 258.851ZM361.733 261.665C362.049 261.751 362.364 261.837 362.679 261.923L363.733 258.065C363.417 257.978 363.101 257.892 362.784 257.806L361.733 261.665ZM372.343 264.62C372.668 264.712 372.992 264.805 373.317 264.898L374.416 261.052C374.091 260.959 373.765 260.866 373.438 260.773L372.343 264.62ZM382.906 267.698C383.221 267.792 383.535 267.886 383.85 267.98L384.997 264.148C384.681 264.053 384.365 263.959 384.049 263.865L382.906 267.698ZM393.369 270.892C393.693 270.993 394.017 271.094 394.34 271.196L395.538 267.38C395.213 267.278 394.888 267.176 394.562 267.074L393.369 270.892ZM403.886 274.26C404.199 274.362 404.512 274.465 404.824 274.568L406.076 270.769C405.762 270.666 405.448 270.562 405.133 270.459L403.886 274.26ZM414.231 277.74C414.553 277.851 414.874 277.962 415.195 278.073L416.505 274.294C416.182 274.182 415.859 274.07 415.536 273.959L414.231 277.74ZM424.641 281.426C424.95 281.539 425.259 281.651 425.567 281.764L426.94 278.007C426.63 277.893 426.319 277.78 426.008 277.667L424.641 281.426ZM434.885 285.252C435.202 285.374 435.518 285.495 435.833 285.617L437.273 281.885C436.955 281.763 436.637 281.64 436.318 281.518L434.885 285.252ZM445.108 289.289C445.411 289.412 445.713 289.535 446.014 289.658L447.527 285.955C447.223 285.831 446.919 285.707 446.614 285.583L445.108 289.289ZM455.247 293.533C455.556 293.666 455.864 293.8 456.171 293.933L457.764 290.264C457.454 290.129 457.143 289.995 456.832 289.86L455.247 293.533ZM465.178 297.954C465.471 298.088 465.764 298.223 466.055 298.358L467.733 294.727C467.439 294.591 467.144 294.455 466.848 294.319L465.178 297.954ZM475.177 302.706C475.473 302.852 475.769 302.998 476.065 303.144L477.839 299.559C477.541 299.411 477.242 299.264 476.942 299.116L475.177 302.706ZM484.886 307.656C485.186 307.814 485.485 307.973 485.783 308.132L487.663 304.601C487.362 304.441 487.059 304.28 486.756 304.12L484.886 307.656ZM494.447 312.912C494.727 313.072 495.005 313.232 495.283 313.392L497.28 309.926C496.999 309.764 496.716 309.602 496.433 309.44L494.447 312.912ZM503.904 318.558C504.182 318.732 504.46 318.906 504.736 319.08L506.866 315.694C506.586 315.517 506.304 315.341 506.021 315.165L503.904 318.558ZM513.042 324.537C513.318 324.726 513.592 324.915 513.864 325.104L516.144 321.817C515.866 321.625 515.587 321.432 515.307 321.24L513.042 324.537ZM521.841 330.911C522.11 331.117 522.377 331.323 522.643 331.528L525.091 328.365C524.82 328.155 524.547 327.945 524.273 327.735L521.841 330.911ZM530.25 337.754C530.508 337.978 530.765 338.202 531.019 338.425L533.66 335.421C533.399 335.191 533.136 334.962 532.872 334.733L530.25 337.754ZM538.178 345.147C538.419 345.39 538.658 345.632 538.896 345.875L541.756 343.078C541.511 342.828 541.265 342.578 541.016 342.328L538.178 345.147ZM545.47 353.167C545.686 353.429 545.901 353.691 546.113 353.953L549.221 351.435C549.001 351.163 548.778 350.891 548.554 350.619L545.47 353.167ZM551.889 361.87C552.071 362.151 552.251 362.431 552.428 362.711L555.808 360.573C555.622 360.279 555.434 359.985 555.243 359.691L551.889 361.87ZM557.109 371.262C557.246 371.559 557.381 371.855 557.513 372.151L561.167 370.525C561.028 370.211 560.885 369.897 560.74 369.583L557.109 371.262ZM560.741 381.259C560.823 381.568 560.902 381.876 560.977 382.184L564.862 381.23C564.78 380.899 564.696 380.568 564.609 380.238L560.741 381.259ZM562.407 391.688C562.425 392.011 562.439 392.333 562.451 392.655L566.448 392.515C566.436 392.167 566.42 391.818 566.401 391.47L562.407 391.688ZM561.841 402.233C561.789 402.549 561.734 402.866 561.676 403.181L565.611 403.904C565.673 403.562 565.733 403.22 565.789 402.878L561.841 402.233ZM559.047 412.454C558.933 412.75 558.816 413.047 558.696 413.343L562.403 414.845C562.531 414.528 562.657 414.211 562.779 413.892L559.047 412.454ZM554.344 421.965C554.177 422.241 554.007 422.515 553.835 422.79L557.225 424.914C557.407 424.623 557.587 424.331 557.764 424.04L554.344 421.965ZM548.113 430.677C547.904 430.93 547.692 431.183 547.478 431.435L550.529 434.022C550.753 433.757 550.975 433.492 551.195 433.227L548.113 430.677ZM540.73 438.559C540.488 438.789 540.244 439.02 539.998 439.249L542.728 442.173C542.983 441.934 543.237 441.695 543.489 441.455L540.73 438.559ZM532.517 445.636C532.265 445.833 532.012 446.029 531.758 446.226L534.201 449.393C534.463 449.19 534.724 448.987 534.984 448.784L532.517 445.636ZM523.721 451.966C523.453 452.144 523.183 452.322 522.912 452.499L525.101 455.847C525.379 455.665 525.656 455.483 525.931 455.3L523.721 451.966ZM514.454 457.664C514.173 457.824 513.892 457.984 513.609 458.143L515.574 461.627C515.863 461.465 516.151 461.301 516.437 461.138L514.454 457.664ZM504.824 462.795C504.535 462.939 504.245 463.083 503.954 463.226L505.719 466.815C506.015 466.669 506.311 466.523 506.606 466.376L504.824 462.795ZM494.929 467.41C494.774 467.478 494.619 467.545 494.463 467.613L496.057 471.281C496.216 471.213 496.374 471.144 496.532 471.075L494.929 467.41Z" fill="#7EDDD3"/>
</svg>
