<svg width="417" height="509" viewBox="0 0 417 509" fill="none" xmlns="http://www.w3.org/2000/svg">
<g opacity="0.5">
<path d="M210.771 284.054V279.323H208.405V284.054C208.405 284.708 207.877 285.236 207.223 285.236H202.492V287.601H207.223C207.877 287.601 208.405 288.13 208.405 288.784V293.515H210.771V288.784C210.771 288.13 211.299 287.601 211.953 287.601H216.684V285.236H211.953C211.299 285.236 210.771 284.708 210.771 284.054Z" fill="white"/>
<path d="M209.587 272.227C201.761 272.227 195.395 278.593 195.395 286.419C195.395 294.244 201.761 300.611 209.587 300.611C217.413 300.611 223.779 294.244 223.779 286.419C223.779 278.593 217.413 272.227 209.587 272.227ZM219.048 288.784C219.048 289.438 218.52 289.967 217.866 289.967H213.135V294.697C213.135 295.351 212.606 295.88 211.952 295.88H207.222C206.568 295.88 206.039 295.351 206.039 294.697V289.967H201.308C200.654 289.967 200.126 289.438 200.126 288.784V284.053C200.126 283.399 200.654 282.871 201.308 282.871H206.039V278.14C206.039 277.486 206.568 276.957 207.222 276.957H211.952C212.606 276.957 213.135 277.486 213.135 278.14V282.871H217.866C218.52 282.871 219.048 283.399 219.048 284.053V288.784Z" fill="white"/>
<path d="M164.647 312.437H202.492V301.356C196.907 298.692 193.031 293.007 193.031 286.419C193.031 279.83 196.907 274.145 202.492 271.482V260.4H194.213C194.205 260.4 194.197 260.396 194.188 260.395C193.108 261.825 191.41 262.766 189.483 262.766H177.656C175.729 262.766 174.031 261.825 172.951 260.395C172.942 260.395 172.934 260.4 172.926 260.4H164.647V312.437ZM196.579 305.341H194.213C193.559 305.341 193.031 304.813 193.031 304.159C193.031 303.505 193.559 302.976 194.213 302.976H196.579C197.233 302.976 197.761 303.505 197.761 304.159C197.761 304.813 197.233 305.341 196.579 305.341ZM182.387 267.496H198.944C199.598 267.496 200.127 268.025 200.127 268.679C200.127 269.333 199.598 269.862 198.944 269.862H182.387C181.733 269.862 181.204 269.333 181.204 268.679C181.204 268.025 181.733 267.496 182.387 267.496ZM182.387 272.227H194.213C194.867 272.227 195.396 272.756 195.396 273.41C195.396 274.064 194.867 274.592 194.213 274.592H182.387C181.733 274.592 181.204 274.064 181.204 273.41C181.204 272.756 181.733 272.227 182.387 272.227ZM182.387 276.958H189.483C190.137 276.958 190.665 277.486 190.665 278.14C190.665 278.794 190.137 279.323 189.483 279.323H182.387C181.733 279.323 181.204 278.794 181.204 278.14C181.204 277.486 181.733 276.958 182.387 276.958ZM182.387 284.053H189.483C190.137 284.053 190.665 284.582 190.665 285.236C190.665 285.89 190.137 286.419 189.483 286.419H182.387C181.733 286.419 181.204 285.89 181.204 285.236C181.204 284.582 181.733 284.053 182.387 284.053ZM182.387 288.784H189.483C190.137 288.784 190.665 289.313 190.665 289.967C190.665 290.621 190.137 291.149 189.483 291.149H182.387C181.733 291.149 181.204 290.621 181.204 289.967C181.204 289.313 181.733 288.784 182.387 288.784ZM182.387 298.245H196.579C197.233 298.245 197.761 298.774 197.761 299.428C197.761 300.082 197.233 300.611 196.579 300.611H182.387C181.733 300.611 181.204 300.082 181.204 299.428C181.204 298.774 181.733 298.245 182.387 298.245ZM182.387 302.976H189.483C190.137 302.976 190.665 303.505 190.665 304.159C190.665 304.813 190.137 305.341 189.483 305.341H182.387C181.733 305.341 181.204 304.813 181.204 304.159C181.204 303.505 181.733 302.976 182.387 302.976ZM178.395 267.755C178.906 268.164 178.987 268.908 178.58 269.418L173.849 275.331C173.639 275.593 173.327 275.754 172.99 275.773C172.969 275.774 172.946 275.775 172.926 275.775C172.614 275.775 172.311 275.651 172.089 275.428L170.907 274.246C170.445 273.784 170.445 273.035 170.907 272.573C171.369 272.112 172.117 272.112 172.579 272.573L172.829 272.822L176.733 267.94C177.144 267.429 177.885 267.35 178.395 267.755ZM167.012 268.679C167.012 268.025 167.541 267.496 168.195 267.496H172.926C173.58 267.496 174.108 268.025 174.108 268.679C174.108 269.333 173.58 269.862 172.926 269.862H169.378V276.958H176.474V273.41C176.474 272.756 177.002 272.227 177.656 272.227C178.31 272.227 178.839 272.756 178.839 273.41V278.14C178.839 278.794 178.31 279.323 177.656 279.323H168.195C167.541 279.323 167.012 278.794 167.012 278.14V268.679ZM178.58 283.61L173.849 289.523C173.639 289.785 173.327 289.946 172.99 289.964C172.969 289.966 172.946 289.967 172.926 289.967C172.614 289.967 172.311 289.843 172.089 289.62L170.907 288.438C170.445 287.976 170.445 287.227 170.907 286.765C171.369 286.303 172.117 286.303 172.579 286.765L172.829 287.014L176.733 282.132C177.144 281.623 177.885 281.543 178.395 281.947C178.906 282.356 178.987 283.1 178.58 283.61ZM167.012 282.871C167.012 282.217 167.541 281.688 168.195 281.688H172.926C173.58 281.688 174.108 282.217 174.108 282.871C174.108 283.525 173.58 284.053 172.926 284.053H169.378V291.149H176.474V287.601C176.474 286.947 177.002 286.419 177.656 286.419C178.31 286.419 178.839 286.947 178.839 287.601V292.332C178.839 292.986 178.31 293.515 177.656 293.515H168.195C167.541 293.515 167.012 292.986 167.012 292.332V282.871ZM178.58 297.802L173.849 303.715C173.639 303.977 173.327 304.138 172.99 304.156C172.969 304.157 172.946 304.159 172.926 304.159C172.614 304.159 172.311 304.035 172.089 303.812L170.907 302.629C170.445 302.168 170.445 301.419 170.907 300.957C171.369 300.495 172.117 300.495 172.579 300.957L172.829 301.206L176.733 296.324C177.144 295.814 177.885 295.736 178.395 296.139C178.906 296.548 178.987 297.292 178.58 297.802ZM167.012 297.063C167.012 296.409 167.541 295.88 168.195 295.88H172.926C173.58 295.88 174.108 296.409 174.108 297.063C174.108 297.717 173.58 298.245 172.926 298.245H169.378V305.341H176.474V301.793C176.474 301.139 177.002 300.611 177.656 300.611C178.31 300.611 178.839 301.139 178.839 301.793V306.524C178.839 307.178 178.31 307.707 177.656 307.707H168.195C167.541 307.707 167.012 307.178 167.012 306.524V297.063Z" fill="white"/>
<path d="M204.858 259.218V270.559C206.358 270.111 207.944 269.862 209.588 269.862V259.218C209.588 255.957 206.937 253.305 203.675 253.305H195.396V256.853C195.396 257.258 195.355 257.653 195.277 258.035H203.675C204.329 258.035 204.858 258.564 204.858 259.218Z" fill="white"/>
<path d="M177.656 260.4H189.483C191.439 260.4 193.031 258.809 193.031 256.852V253.304H190.075L188.3 250.939C187.192 249.458 185.422 248.574 183.57 248.574C181.717 248.574 179.948 249.458 178.839 250.938L177.064 253.304H174.108V256.852C174.108 258.809 175.7 260.4 177.656 260.4Z" fill="white"/>
<path d="M204.857 313.62C204.857 314.274 204.328 314.803 203.674 314.803H163.464C162.81 314.803 162.281 314.274 162.281 313.62V259.218C162.281 258.564 162.81 258.035 163.464 258.035H171.862C171.784 257.653 171.743 257.258 171.743 256.853V253.305H163.464C160.202 253.305 157.551 255.957 157.551 259.218V313.62C157.551 316.881 160.202 319.533 163.464 319.533H203.674C206.936 319.533 209.588 316.881 209.588 313.62V302.976C207.943 302.976 206.357 302.727 204.857 302.279V313.62Z" fill="white"/>
<path d="M96.882 191.253C96.8794 190.877 97.1193 190.542 97.4762 190.423L109.445 186.434V180.426C109.445 178.845 108.157 177.557 106.575 177.557H101.663V179.326C101.663 179.806 101.274 180.196 100.794 180.196H84.2773C83.7972 180.196 83.408 179.806 83.408 179.326V177.557H78.8884C77.3065 177.557 76.019 178.844 76.019 180.426V219.026C76.019 220.608 77.3065 221.896 78.8884 221.896H105.438C104.988 221.286 104.536 220.643 104.086 219.964C97.0811 209.404 96.8866 191.99 96.882 191.253V191.253ZM79.4962 184.977H91.2316C91.7117 184.977 92.1009 185.366 92.1009 185.846C92.1009 186.326 91.7117 186.715 91.2316 186.715H79.4962C79.0161 186.715 78.6269 186.326 78.6269 185.846C78.6269 185.366 79.0161 184.977 79.4962 184.977ZM79.4962 191.931H86.0159C86.496 191.931 86.8852 192.32 86.8852 192.8C86.8852 193.28 86.496 193.669 86.0159 193.669H79.4962C79.0161 193.669 78.6269 193.28 78.6269 192.8C78.6269 192.32 79.0161 191.931 79.4962 191.931ZM79.4962 198.885H86.0159C86.496 198.885 86.8852 199.274 86.8852 199.754C86.8852 200.235 86.496 200.624 86.0159 200.624H79.4962C79.0161 200.624 78.6269 200.235 78.6269 199.754C78.6269 199.274 79.0161 198.885 79.4962 198.885ZM79.4962 206.709H90.3623C90.8424 206.709 91.2316 207.098 91.2316 207.578C91.2316 208.058 90.8424 208.447 90.3623 208.447H79.4962C79.0161 208.447 78.6269 208.058 78.6269 207.578C78.6269 207.098 79.0161 206.709 79.4962 206.709ZM95.5781 214.967H79.4962C79.0161 214.967 78.6269 214.578 78.6269 214.098C78.6269 213.618 79.0161 213.228 79.4962 213.228H95.5781C96.0582 213.228 96.4474 213.618 96.4474 214.098C96.4474 214.578 96.0582 214.967 95.5781 214.967Z" fill="white"/>
<path d="M99.9249 174.544H85.147V178.456H99.9249V174.544Z" fill="white"/>
<path d="M98.6362 191.869C98.7403 195.094 99.5425 209.969 105.535 219.003C111.507 228.006 117.689 230.499 118.929 230.925C120.164 230.501 126.347 228.01 132.322 219.003C138.315 209.969 139.117 195.094 139.221 191.869L118.929 185.105L98.6362 191.869ZM110.9 219.122C110.739 219.251 110.547 219.313 110.356 219.313C110.102 219.313 109.85 219.202 109.679 218.988C109.399 218.641 102.85 210.345 103.403 199.277C103.427 198.797 103.847 198.431 104.315 198.452C104.794 198.476 105.164 198.884 105.139 199.363C104.62 209.754 110.971 217.82 111.035 217.9C111.334 218.275 111.274 218.822 110.9 219.122Z" fill="white"/>
<path d="M139.043 171.068V167.156H132.088V171.068C132.088 171.548 131.699 171.937 131.219 171.937H126.873V178.891H131.219C131.699 178.891 132.088 179.281 132.088 179.761V184.107H139.043V179.761C139.043 179.281 139.432 178.891 139.912 178.891H144.258V171.937H139.912C139.432 171.937 139.043 171.548 139.043 171.068Z" fill="white"/>
<path d="M272.673 375.911C272.673 374.129 271.223 372.68 269.442 372.68H256.983C255.202 372.68 253.751 374.129 253.751 375.911V378.909C253.751 380.691 255.202 382.141 256.983 382.141H269.442C271.223 382.141 272.673 380.691 272.673 378.909V375.911Z" fill="white"/>
<path d="M256.991 384.506C256.684 384.506 256.4 384.482 256.116 384.435V412.89C256.116 416.793 259.309 419.986 263.212 419.986C267.115 419.986 270.308 416.793 270.308 412.89V384.435C270.024 384.482 269.74 384.506 269.433 384.506H256.991Z" fill="white"/>
<path d="M303.422 391.602H296.326V408.159H303.422V391.602Z" fill="white"/>
<path d="M293.961 384.506H286.865V389.237H293.961V384.506Z" fill="white"/>
<path d="M293.961 391.602H286.865V408.159H293.961V391.602Z" fill="white"/>
<path d="M303.422 384.506H296.326V389.237H303.422V384.506Z" fill="white"/>
<path d="M298.692 354.451V359.671V365.584H309.826L298.692 354.451Z" fill="white"/>
<path d="M296.327 360.854H270.309V365.584H296.327V360.854Z" fill="white"/>
<path d="M297.509 367.949H269.126C268.472 367.949 267.943 367.421 267.943 366.767V359.671C267.943 359.017 268.472 358.488 269.126 358.488H296.327V353.757H264.395C263.741 353.757 263.212 354.286 263.212 354.94V370.315H269.442C272.528 370.315 275.039 372.825 275.039 375.912V378.593C275.039 377.939 275.568 377.411 276.222 377.411H285.683C286.337 377.411 286.866 377.939 286.866 378.593C286.866 379.247 286.337 379.776 285.683 379.776H276.222C275.568 379.776 275.039 379.247 275.039 378.593V378.91C275.039 380.789 274.1 382.447 272.674 383.463V412.89C272.674 413.712 272.535 414.495 272.338 415.256H309.336C309.99 415.256 310.519 414.727 310.519 414.073V367.949H297.509ZM305.788 409.342C305.788 409.996 305.259 410.525 304.605 410.525H276.222C275.568 410.525 275.039 409.996 275.039 409.342C275.039 408.688 275.568 408.16 276.222 408.16H284.5V391.602H276.222C275.568 391.602 275.039 391.074 275.039 390.42C275.039 389.766 275.568 389.237 276.222 389.237H284.5V384.506H276.222C275.568 384.506 275.039 383.978 275.039 383.324C275.039 382.67 275.568 382.141 276.222 382.141H304.605C305.259 382.141 305.788 382.67 305.788 383.324V409.342ZM304.605 379.776H290.414C289.76 379.776 289.231 379.247 289.231 378.593C289.231 377.939 289.76 377.411 290.414 377.411H304.605C305.259 377.411 305.788 377.939 305.788 378.593C305.788 379.247 305.259 379.776 304.605 379.776ZM304.605 375.045H276.222C275.568 375.045 275.039 374.517 275.039 373.863C275.039 373.209 275.568 372.68 276.222 372.68H304.605C305.259 372.68 305.788 373.209 305.788 373.863C305.788 374.517 305.259 375.045 304.605 375.045Z" fill="white"/>
<path d="M230.783 111.235V107.687H228.418V111.235C228.418 111.889 227.889 112.417 227.235 112.417H223.687V114.783H227.235C227.889 114.783 228.418 115.311 228.418 115.965V119.513H230.783V115.965C230.783 115.311 231.312 114.783 231.966 114.783H235.514V112.417H231.966C231.312 112.417 230.783 111.889 230.783 111.235Z" fill="white"/>
<path d="M202.4 119.513C206.319 119.513 209.496 116.336 209.496 112.417C209.496 108.498 206.319 105.321 202.4 105.321C198.481 105.321 195.304 108.498 195.304 112.417C195.304 116.336 198.481 119.513 202.4 119.513Z" fill="white"/>
<path d="M239.061 102.956H220.139C218.183 102.956 216.591 104.548 216.591 106.504V120.696C216.591 122.652 218.183 124.244 220.139 124.244C220.793 124.244 221.321 124.773 221.321 125.427V129.668L226.399 124.59C226.62 124.369 226.921 124.244 227.235 124.244H239.061C241.017 124.244 242.609 122.652 242.609 120.696V106.504C242.609 104.548 241.017 102.956 239.061 102.956ZM237.879 115.965C237.879 116.619 237.35 117.148 236.696 117.148H233.148V120.696C233.148 121.35 232.619 121.879 231.965 121.879H227.235C226.581 121.879 226.052 121.35 226.052 120.696V117.148H222.504C221.85 117.148 221.321 116.619 221.321 115.965V111.235C221.321 110.581 221.85 110.052 222.504 110.052H226.052V106.504C226.052 105.85 226.581 105.321 227.235 105.321H231.965C232.619 105.321 233.148 105.85 233.148 106.504V110.052H236.696C237.35 110.052 237.879 110.581 237.879 111.235V115.965Z" fill="white"/>
<path d="M205.873 126.609H198.925C196.492 126.609 194.338 128.068 193.435 130.325L191.136 136.07H213.662L211.364 130.325C210.461 128.068 208.305 126.609 205.873 126.609Z" fill="white"/>
<path d="M189.39 138.435H183.477V141.983C183.477 143.939 185.068 145.531 187.025 145.531H246.157C248.114 145.531 249.705 143.939 249.705 141.983V138.435H189.39Z" fill="white"/>
<path d="M246.157 95.8598H187.025C185.068 95.8598 183.477 97.4517 183.477 99.4078V136.07H188.59L191.24 129.448C192.504 126.287 195.52 124.244 198.925 124.244H205.873C209.278 124.244 212.294 126.287 213.558 129.448L216.208 136.07H249.705V99.4078C249.705 97.4517 248.114 95.8598 246.157 95.8598ZM202.399 121.878C197.181 121.878 192.938 117.634 192.938 112.417C192.938 107.2 197.181 102.956 202.399 102.956C207.617 102.956 211.86 107.2 211.86 112.417C211.86 117.634 207.617 121.878 202.399 121.878ZM244.975 120.696C244.975 123.956 242.323 126.609 239.061 126.609H227.725L220.975 133.358C220.749 133.585 220.446 133.705 220.139 133.705C219.986 133.705 219.831 133.676 219.686 133.615C219.245 133.433 218.956 133.001 218.956 132.522V126.49C216.261 125.94 214.226 123.552 214.226 120.696V106.504C214.226 103.243 216.877 100.59 220.139 100.59H239.061C242.323 100.59 244.975 103.243 244.975 106.504V120.696Z" fill="white"/>
<path d="M231.966 154.993H228.418V147.897H204.765V154.993H201.217C200.563 154.993 200.034 155.522 200.034 156.176V160.907C200.034 161.561 200.563 162.089 201.217 162.089H231.966C232.62 162.089 233.149 161.561 233.149 160.907V156.176C233.149 155.522 232.62 154.993 231.966 154.993Z" fill="white"/>
<path d="M28.762 366.744V363.196H31.1273V366.744C31.1273 367.398 31.6559 367.927 32.3099 367.927H35.8579V370.292H32.3099C31.6559 370.292 31.1273 370.821 31.1273 371.475V375.023H28.762V371.475C28.762 370.821 28.2333 370.292 27.5793 370.292H24.0313V367.927H27.5793C28.2333 367.927 28.762 367.398 28.762 366.744Z" fill="white"/>
<path d="M57.1453 375.023C53.2263 375.023 50.0493 371.846 50.0493 367.927C50.0493 364.008 53.2263 360.831 57.1453 360.831C61.0642 360.831 64.2412 364.008 64.2412 367.927C64.2412 371.846 61.0642 375.023 57.1453 375.023Z" fill="white"/>
<path d="M20.4836 358.465H39.4061C41.3622 358.465 42.9541 360.057 42.9541 362.013V376.205C42.9541 378.161 41.3622 379.753 39.4061 379.753C38.7521 379.753 38.2235 380.282 38.2235 380.936V385.177L33.1463 380.1C32.9246 379.878 32.6242 379.753 32.3102 379.753H20.4836C18.5275 379.753 16.9356 378.161 16.9356 376.205V362.013C16.9356 360.057 18.5275 358.465 20.4836 358.465ZM21.6663 371.475C21.6663 372.129 22.1949 372.657 22.8489 372.657H26.3969V376.205C26.3969 376.859 26.9255 377.388 27.5796 377.388H32.3102C32.9642 377.388 33.4928 376.859 33.4928 376.205V372.657H37.0408C37.6948 372.657 38.2235 372.129 38.2235 371.475V366.744C38.2235 366.09 37.6948 365.561 37.0408 365.561H33.4928V362.013C33.4928 361.359 32.9642 360.831 32.3102 360.831H27.5796C26.9255 360.831 26.3969 361.359 26.3969 362.013V365.561H22.8489C22.1949 365.561 21.6663 366.09 21.6663 366.744V371.475Z" fill="white"/>
<path d="M53.6716 382.118H60.6197C63.0524 382.118 65.2072 383.577 66.1102 385.835L68.4087 391.579H45.8826L48.1811 385.835C49.0841 383.577 51.2395 382.118 53.6716 382.118Z" fill="white"/>
<path d="M70.1551 393.944H76.0684V397.492C76.0684 399.448 74.4765 401.04 72.5204 401.04H13.3875C11.4314 401.04 9.83955 399.448 9.83955 397.492V393.944H70.1551Z" fill="white"/>
<path d="M13.3875 351.369H72.5204C74.4765 351.369 76.0684 352.961 76.0684 354.917V391.579H70.9545L68.3048 384.957C67.0411 381.796 64.0248 379.753 60.6199 379.753H53.6718C50.2669 379.753 47.2505 381.796 45.9869 384.957L43.3371 391.579H9.83955V354.917C9.83955 352.961 11.4314 351.369 13.3875 351.369ZM57.1458 377.388C62.3637 377.388 66.6071 373.143 66.6071 367.926C66.6071 362.71 62.3637 358.465 57.1458 358.465C51.928 358.465 47.6846 362.71 47.6846 367.926C47.6846 373.143 51.928 377.388 57.1458 377.388ZM14.5702 376.205C14.5702 379.466 17.2217 382.118 20.4835 382.118H31.8204L38.5698 388.868C38.7963 389.094 39.0985 389.214 39.406 389.214C39.5585 389.214 39.7135 389.185 39.8589 389.124C40.3001 388.942 40.5886 388.51 40.5886 388.032V381.999C43.2839 381.449 45.3193 379.061 45.3193 376.205V362.013C45.3193 358.752 42.6677 356.1 39.406 356.1H20.4835C17.2217 356.1 14.5702 358.752 14.5702 362.013V376.205Z" fill="white"/>
<path d="M27.579 410.503H31.127V403.407H54.7801V410.503H58.3281C58.9821 410.503 59.5107 411.031 59.5107 411.685V416.416C59.5107 417.07 58.9821 417.599 58.3281 417.599H27.579C26.925 417.599 26.3963 417.07 26.3963 416.416V411.685C26.3963 411.031 26.925 410.503 27.579 410.503Z" fill="white"/>
<path d="M304.628 191.97V188.422H302.262V191.97C302.262 192.624 301.734 193.152 301.08 193.152H297.532V195.518H301.08C301.734 195.518 302.262 196.046 302.262 196.7V200.248H304.628V196.7C304.628 196.046 305.156 195.518 305.81 195.518H309.358V193.152H305.81C305.156 193.152 304.628 192.624 304.628 191.97Z" fill="white"/>
<path d="M316.454 181.327H290.435C288.479 181.327 286.887 182.918 286.887 184.875V203.797C286.887 205.753 288.479 207.345 290.435 207.345H299.167L302.387 213.787C302.588 214.187 302.996 214.441 303.444 214.441C303.893 214.441 304.301 214.187 304.502 213.787L307.722 207.345H316.454C318.41 207.345 320.002 205.753 320.002 203.797V184.875C320.002 182.918 318.41 181.327 316.454 181.327ZM311.723 196.701C311.723 197.355 311.194 197.884 310.54 197.884H306.992V201.432C306.992 202.086 306.464 202.614 305.81 202.614H301.079C300.425 202.614 299.896 202.086 299.896 201.432V197.884H296.348C295.694 197.884 295.166 197.355 295.166 196.701V191.97C295.166 191.316 295.694 190.788 296.348 190.788H299.896V187.24C299.896 186.586 300.425 186.057 301.079 186.057H305.81C306.464 186.057 306.992 186.586 306.992 187.24V190.788H310.54C311.194 190.788 311.723 191.316 311.723 191.97V196.701Z" fill="white"/>
<path d="M300.275 214.842L297.697 209.71H290.435C287.171 209.71 284.522 207.061 284.522 203.796V184.874C284.522 181.61 287.171 178.961 290.435 178.961H305.81V168.317C305.81 166.353 304.225 164.769 302.262 164.769H271.513C269.55 164.769 267.965 166.353 267.965 168.317V227.45C267.965 229.413 269.55 230.998 271.513 230.998H302.262C304.225 230.998 305.81 229.413 305.81 227.45V215.883C305.171 216.475 304.343 216.806 303.445 216.806C302.096 216.806 300.89 216.049 300.275 214.842ZM283.339 169.499H290.435C291.098 169.499 291.618 170.02 291.618 170.682C291.618 171.344 291.098 171.865 290.435 171.865H283.339C282.677 171.865 282.157 171.344 282.157 170.682C282.157 170.02 282.677 169.499 283.339 169.499ZM289.253 226.267H284.522C282.559 226.267 280.974 224.682 280.974 222.719C280.974 220.756 282.559 219.171 284.522 219.171H289.253C291.216 219.171 292.801 220.756 292.801 222.719C292.801 224.682 291.216 226.267 289.253 226.267Z" fill="white"/>
<path d="M289.253 221.536H284.522C283.86 221.536 283.339 222.057 283.339 222.719C283.339 223.381 283.86 223.902 284.522 223.902H289.253C289.915 223.902 290.435 223.381 290.435 222.719C290.435 222.057 289.915 221.536 289.253 221.536Z" fill="white"/>
<ellipse cx="90.2905" cy="74.5388" rx="3.46821" ry="3.46821" fill="white"/>
<ellipse cx="90.2905" cy="88.6393" rx="3.46821" ry="3.46821" fill="white"/>
<ellipse cx="90.2905" cy="102.74" rx="3.46821" ry="3.46821" fill="white"/>
<ellipse cx="106.665" cy="74.5388" rx="3.46821" ry="3.46821" fill="white"/>
<ellipse cx="106.665" cy="88.6394" rx="3.46821" ry="3.46821" fill="white"/>
<ellipse cx="106.665" cy="102.74" rx="3.46821" ry="3.46821" fill="white"/>
<ellipse cx="123.039" cy="74.5388" rx="3.46821" ry="3.46821" fill="white"/>
<ellipse cx="123.039" cy="88.6393" rx="3.46821" ry="3.46821" fill="white"/>
<ellipse cx="123.039" cy="102.74" rx="3.46821" ry="3.46821" fill="white"/>
<ellipse cx="90.2905" cy="116.839" rx="3.46821" ry="3.46821" fill="white"/>
<ellipse cx="90.2905" cy="130.94" rx="3.46821" ry="3.46821" fill="white"/>
<ellipse cx="90.2905" cy="145.04" rx="3.46821" ry="3.46821" fill="white"/>
<ellipse cx="106.665" cy="116.839" rx="3.46821" ry="3.46821" fill="white"/>
<ellipse cx="106.665" cy="130.94" rx="3.46821" ry="3.46821" fill="white"/>
<ellipse cx="106.665" cy="145.04" rx="3.46821" ry="3.46821" fill="white"/>
<ellipse cx="123.039" cy="116.839" rx="3.46821" ry="3.46821" fill="white"/>
<ellipse cx="123.039" cy="130.94" rx="3.46821" ry="3.46821" fill="white"/>
<ellipse cx="123.039" cy="145.04" rx="3.46821" ry="3.46821" fill="white"/>
<ellipse cx="232.315" cy="183.247" rx="3.46821" ry="3.46821" transform="rotate(90 232.315 183.247)" fill="white"/>
<ellipse cx="218.215" cy="183.247" rx="3.46821" ry="3.46821" transform="rotate(90 218.215 183.247)" fill="white"/>
<ellipse cx="204.114" cy="183.247" rx="3.46821" ry="3.46821" transform="rotate(90 204.114 183.247)" fill="white"/>
<ellipse cx="232.315" cy="199.622" rx="3.46821" ry="3.46821" transform="rotate(90 232.315 199.622)" fill="white"/>
<ellipse cx="218.215" cy="199.622" rx="3.46821" ry="3.46821" transform="rotate(90 218.215 199.622)" fill="white"/>
<ellipse cx="204.114" cy="199.622" rx="3.46821" ry="3.46821" transform="rotate(90 204.114 199.622)" fill="white"/>
<ellipse cx="232.315" cy="215.996" rx="3.46821" ry="3.46821" transform="rotate(90 232.315 215.996)" fill="white"/>
<ellipse cx="218.215" cy="215.996" rx="3.46821" ry="3.46821" transform="rotate(90 218.215 215.996)" fill="white"/>
<ellipse cx="204.114" cy="215.996" rx="3.46821" ry="3.46821" transform="rotate(90 204.114 215.996)" fill="white"/>
<ellipse cx="190.014" cy="183.247" rx="3.46821" ry="3.46821" transform="rotate(90 190.014 183.247)" fill="white"/>
<ellipse cx="175.914" cy="183.247" rx="3.46821" ry="3.46821" transform="rotate(90 175.914 183.247)" fill="white"/>
<ellipse cx="161.814" cy="183.247" rx="3.46821" ry="3.46821" transform="rotate(90 161.814 183.247)" fill="white"/>
<ellipse cx="190.014" cy="199.622" rx="3.46821" ry="3.46821" transform="rotate(90 190.014 199.622)" fill="white"/>
<ellipse cx="175.914" cy="199.622" rx="3.46821" ry="3.46821" transform="rotate(90 175.914 199.622)" fill="white"/>
<ellipse cx="161.814" cy="199.622" rx="3.46821" ry="3.46821" transform="rotate(90 161.814 199.622)" fill="white"/>
<ellipse cx="190.014" cy="215.996" rx="3.46821" ry="3.46821" transform="rotate(90 190.014 215.996)" fill="white"/>
<ellipse cx="175.914" cy="215.996" rx="3.46821" ry="3.46821" transform="rotate(90 175.914 215.996)" fill="white"/>
<ellipse cx="161.814" cy="215.996" rx="3.46821" ry="3.46821" transform="rotate(90 161.814 215.996)" fill="white"/>
<ellipse cx="232.315" cy="363.025" rx="3.46821" ry="3.46821" transform="rotate(90 232.315 363.025)" fill="white"/>
<ellipse cx="218.214" cy="363.025" rx="3.46821" ry="3.46821" transform="rotate(90 218.214 363.025)" fill="white"/>
<ellipse cx="204.114" cy="363.025" rx="3.46821" ry="3.46821" transform="rotate(90 204.114 363.025)" fill="white"/>
<ellipse cx="232.315" cy="379.4" rx="3.46821" ry="3.46821" transform="rotate(90 232.315 379.4)" fill="white"/>
<ellipse cx="218.214" cy="379.4" rx="3.46821" ry="3.46821" transform="rotate(90 218.214 379.4)" fill="white"/>
<ellipse cx="204.114" cy="379.4" rx="3.46821" ry="3.46821" transform="rotate(90 204.114 379.4)" fill="white"/>
<ellipse cx="232.315" cy="395.774" rx="3.46821" ry="3.46821" transform="rotate(90 232.315 395.774)" fill="white"/>
<ellipse cx="218.214" cy="395.774" rx="3.46821" ry="3.46821" transform="rotate(90 218.214 395.774)" fill="white"/>
<ellipse cx="204.114" cy="395.774" rx="3.46821" ry="3.46821" transform="rotate(90 204.114 395.774)" fill="white"/>
<ellipse cx="190.014" cy="363.025" rx="3.46821" ry="3.46821" transform="rotate(90 190.014 363.025)" fill="white"/>
<ellipse cx="175.913" cy="363.025" rx="3.46821" ry="3.46821" transform="rotate(90 175.913 363.025)" fill="white"/>
<ellipse cx="161.814" cy="363.025" rx="3.46821" ry="3.46821" transform="rotate(90 161.814 363.025)" fill="white"/>
<ellipse cx="190.014" cy="379.4" rx="3.46821" ry="3.46821" transform="rotate(90 190.014 379.4)" fill="white"/>
<ellipse cx="175.913" cy="379.4" rx="3.46821" ry="3.46821" transform="rotate(90 175.913 379.4)" fill="white"/>
<ellipse cx="161.814" cy="379.4" rx="3.46821" ry="3.46821" transform="rotate(90 161.814 379.4)" fill="white"/>
<ellipse cx="190.014" cy="395.774" rx="3.46821" ry="3.46821" transform="rotate(90 190.014 395.774)" fill="white"/>
<ellipse cx="175.913" cy="395.774" rx="3.46821" ry="3.46821" transform="rotate(90 175.913 395.774)" fill="white"/>
<ellipse cx="161.814" cy="395.774" rx="3.46821" ry="3.46821" transform="rotate(90 161.814 395.774)" fill="white"/>
<ellipse cx="232.316" cy="3.46827" rx="3.46821" ry="3.46821" transform="rotate(90 232.316 3.46827)" fill="white"/>
<ellipse cx="218.215" cy="3.46827" rx="3.46821" ry="3.46821" transform="rotate(90 218.215 3.46827)" fill="white"/>
<ellipse cx="204.115" cy="3.46827" rx="3.46821" ry="3.46821" transform="rotate(90 204.115 3.46827)" fill="white"/>
<ellipse cx="232.316" cy="19.8432" rx="3.46821" ry="3.46821" transform="rotate(90 232.316 19.8432)" fill="white"/>
<ellipse cx="218.215" cy="19.8432" rx="3.46821" ry="3.46821" transform="rotate(90 218.215 19.8432)" fill="white"/>
<ellipse cx="204.115" cy="19.8432" rx="3.46821" ry="3.46821" transform="rotate(90 204.115 19.8432)" fill="white"/>
<ellipse cx="232.316" cy="36.217" rx="3.46821" ry="3.46821" transform="rotate(90 232.316 36.217)" fill="white"/>
<ellipse cx="218.215" cy="36.217" rx="3.46821" ry="3.46821" transform="rotate(90 218.215 36.217)" fill="white"/>
<ellipse cx="204.115" cy="36.217" rx="3.46821" ry="3.46821" transform="rotate(90 204.115 36.217)" fill="white"/>
<ellipse cx="190.015" cy="3.46827" rx="3.46821" ry="3.46821" transform="rotate(90 190.015 3.46827)" fill="white"/>
<ellipse cx="175.914" cy="3.46827" rx="3.46821" ry="3.46821" transform="rotate(90 175.914 3.46827)" fill="white"/>
<ellipse cx="161.815" cy="3.46827" rx="3.46821" ry="3.46821" transform="rotate(90 161.815 3.46827)" fill="white"/>
<ellipse cx="190.015" cy="19.8432" rx="3.46821" ry="3.46821" transform="rotate(90 190.015 19.8432)" fill="white"/>
<ellipse cx="175.914" cy="19.8432" rx="3.46821" ry="3.46821" transform="rotate(90 175.914 19.8432)" fill="white"/>
<ellipse cx="161.815" cy="19.8432" rx="3.46821" ry="3.46821" transform="rotate(90 161.815 19.8432)" fill="white"/>
<ellipse cx="190.015" cy="36.217" rx="3.46821" ry="3.46821" transform="rotate(90 190.015 36.217)" fill="white"/>
<ellipse cx="175.914" cy="36.217" rx="3.46821" ry="3.46821" transform="rotate(90 175.914 36.217)" fill="white"/>
<ellipse cx="161.815" cy="36.217" rx="3.46821" ry="3.46821" transform="rotate(90 161.815 36.217)" fill="white"/>
<ellipse cx="413.232" cy="183.247" rx="3.46821" ry="3.46821" transform="rotate(90 413.232 183.247)" fill="white"/>
<ellipse cx="399.131" cy="183.247" rx="3.46821" ry="3.46821" transform="rotate(90 399.131 183.247)" fill="white"/>
<ellipse cx="385.031" cy="183.247" rx="3.46821" ry="3.46821" transform="rotate(90 385.031 183.247)" fill="white"/>
<ellipse cx="413.232" cy="199.622" rx="3.46821" ry="3.46821" transform="rotate(90 413.232 199.622)" fill="white"/>
<ellipse cx="399.131" cy="199.622" rx="3.46821" ry="3.46821" transform="rotate(90 399.131 199.622)" fill="white"/>
<ellipse cx="385.031" cy="199.622" rx="3.46821" ry="3.46821" transform="rotate(90 385.031 199.622)" fill="white"/>
<ellipse cx="413.232" cy="215.996" rx="3.46821" ry="3.46821" transform="rotate(90 413.232 215.996)" fill="white"/>
<ellipse cx="399.131" cy="215.996" rx="3.46821" ry="3.46821" transform="rotate(90 399.131 215.996)" fill="white"/>
<ellipse cx="385.031" cy="215.996" rx="3.46821" ry="3.46821" transform="rotate(90 385.031 215.996)" fill="white"/>
<ellipse cx="370.931" cy="183.247" rx="3.46821" ry="3.46821" transform="rotate(90 370.931 183.247)" fill="white"/>
<ellipse cx="356.83" cy="183.247" rx="3.46821" ry="3.46821" transform="rotate(90 356.83 183.247)" fill="white"/>
<ellipse cx="342.731" cy="183.247" rx="3.46821" ry="3.46821" transform="rotate(90 342.731 183.247)" fill="white"/>
<ellipse cx="370.931" cy="199.622" rx="3.46821" ry="3.46821" transform="rotate(90 370.931 199.622)" fill="white"/>
<ellipse cx="356.83" cy="199.622" rx="3.46821" ry="3.46821" transform="rotate(90 356.83 199.622)" fill="white"/>
<ellipse cx="342.731" cy="199.622" rx="3.46821" ry="3.46821" transform="rotate(90 342.731 199.622)" fill="white"/>
<ellipse cx="370.931" cy="215.996" rx="3.46821" ry="3.46821" transform="rotate(90 370.931 215.996)" fill="white"/>
<ellipse cx="356.83" cy="215.996" rx="3.46821" ry="3.46821" transform="rotate(90 356.83 215.996)" fill="white"/>
<ellipse cx="342.731" cy="215.996" rx="3.46821" ry="3.46821" transform="rotate(90 342.731 215.996)" fill="white"/>
<ellipse cx="51.9693" cy="183.247" rx="3.46821" ry="3.46821" transform="rotate(90 51.9693 183.247)" fill="white"/>
<ellipse cx="37.8687" cy="183.247" rx="3.46821" ry="3.46821" transform="rotate(90 37.8687 183.247)" fill="white"/>
<ellipse cx="23.7686" cy="183.247" rx="3.46821" ry="3.46821" transform="rotate(90 23.7686 183.247)" fill="white"/>
<ellipse cx="51.9693" cy="199.622" rx="3.46821" ry="3.46821" transform="rotate(90 51.9693 199.622)" fill="white"/>
<ellipse cx="37.8687" cy="199.622" rx="3.46821" ry="3.46821" transform="rotate(90 37.8687 199.622)" fill="white"/>
<ellipse cx="23.7686" cy="199.622" rx="3.46821" ry="3.46821" transform="rotate(90 23.7686 199.622)" fill="white"/>
<ellipse cx="51.9693" cy="215.996" rx="3.46821" ry="3.46821" transform="rotate(90 51.9693 215.996)" fill="white"/>
<ellipse cx="37.8687" cy="215.996" rx="3.46821" ry="3.46821" transform="rotate(90 37.8687 215.996)" fill="white"/>
<ellipse cx="23.7686" cy="215.996" rx="3.46821" ry="3.46821" transform="rotate(90 23.7686 215.996)" fill="white"/>
<ellipse cx="9.66803" cy="183.247" rx="3.46821" ry="3.46821" transform="rotate(90 9.66803 183.247)" fill="white"/>
<ellipse cx="9.66803" cy="199.622" rx="3.46821" ry="3.46821" transform="rotate(90 9.66803 199.622)" fill="white"/>
<ellipse cx="9.66803" cy="215.996" rx="3.46821" ry="3.46821" transform="rotate(90 9.66803 215.996)" fill="white"/>
<ellipse cx="123.039" cy="324.817" rx="3.46821" ry="3.46821" transform="rotate(-180 123.039 324.817)" fill="white"/>
<ellipse cx="123.039" cy="310.716" rx="3.46821" ry="3.46821" transform="rotate(-180 123.039 310.716)" fill="white"/>
<ellipse cx="123.039" cy="296.616" rx="3.46821" ry="3.46821" transform="rotate(-180 123.039 296.616)" fill="white"/>
<ellipse cx="106.664" cy="324.817" rx="3.46821" ry="3.46821" transform="rotate(-180 106.664 324.817)" fill="white"/>
<ellipse cx="106.664" cy="310.716" rx="3.46821" ry="3.46821" transform="rotate(-180 106.664 310.716)" fill="white"/>
<ellipse cx="106.664" cy="296.616" rx="3.46821" ry="3.46821" transform="rotate(-180 106.664 296.616)" fill="white"/>
<ellipse cx="90.2901" cy="324.817" rx="3.46821" ry="3.46821" transform="rotate(-180 90.2901 324.817)" fill="white"/>
<ellipse cx="90.2901" cy="310.716" rx="3.46821" ry="3.46821" transform="rotate(-180 90.2901 310.716)" fill="white"/>
<ellipse cx="90.2901" cy="296.616" rx="3.46821" ry="3.46821" transform="rotate(-180 90.2901 296.616)" fill="white"/>
<ellipse cx="123.039" cy="282.516" rx="3.46821" ry="3.46821" transform="rotate(-180 123.039 282.516)" fill="white"/>
<ellipse cx="123.039" cy="268.415" rx="3.46821" ry="3.46821" transform="rotate(-180 123.039 268.415)" fill="white"/>
<ellipse cx="123.039" cy="254.316" rx="3.46821" ry="3.46821" transform="rotate(-180 123.039 254.316)" fill="white"/>
<ellipse cx="106.664" cy="282.516" rx="3.46821" ry="3.46821" transform="rotate(-180 106.664 282.516)" fill="white"/>
<ellipse cx="106.664" cy="268.415" rx="3.46821" ry="3.46821" transform="rotate(-180 106.664 268.415)" fill="white"/>
<ellipse cx="106.664" cy="254.316" rx="3.46821" ry="3.46821" transform="rotate(-180 106.664 254.316)" fill="white"/>
<ellipse cx="90.2901" cy="282.516" rx="3.46821" ry="3.46821" transform="rotate(-180 90.2901 282.516)" fill="white"/>
<ellipse cx="90.2901" cy="268.415" rx="3.46821" ry="3.46821" transform="rotate(-180 90.2901 268.415)" fill="white"/>
<ellipse cx="90.2901" cy="254.316" rx="3.46821" ry="3.46821" transform="rotate(-180 90.2901 254.316)" fill="white"/>
<ellipse cx="123.039" cy="504.596" rx="3.46821" ry="3.46821" transform="rotate(-180 123.039 504.596)" fill="white"/>
<ellipse cx="123.039" cy="490.495" rx="3.46821" ry="3.46821" transform="rotate(-180 123.039 490.495)" fill="white"/>
<ellipse cx="123.039" cy="476.395" rx="3.46821" ry="3.46821" transform="rotate(-180 123.039 476.395)" fill="white"/>
<ellipse cx="106.664" cy="504.596" rx="3.46821" ry="3.46821" transform="rotate(-180 106.664 504.596)" fill="white"/>
<ellipse cx="106.664" cy="490.495" rx="3.46821" ry="3.46821" transform="rotate(-180 106.664 490.495)" fill="white"/>
<ellipse cx="106.664" cy="476.395" rx="3.46821" ry="3.46821" transform="rotate(-180 106.664 476.395)" fill="white"/>
<ellipse cx="90.2901" cy="504.596" rx="3.46821" ry="3.46821" transform="rotate(-180 90.2901 504.596)" fill="white"/>
<ellipse cx="90.2901" cy="490.495" rx="3.46821" ry="3.46821" transform="rotate(-180 90.2901 490.495)" fill="white"/>
<ellipse cx="90.2901" cy="476.395" rx="3.46821" ry="3.46821" transform="rotate(-180 90.2901 476.395)" fill="white"/>
<ellipse cx="123.039" cy="462.295" rx="3.46821" ry="3.46821" transform="rotate(-180 123.039 462.295)" fill="white"/>
<ellipse cx="123.039" cy="448.194" rx="3.46821" ry="3.46821" transform="rotate(-180 123.039 448.194)" fill="white"/>
<ellipse cx="123.039" cy="434.095" rx="3.46821" ry="3.46821" transform="rotate(-180 123.039 434.095)" fill="white"/>
<ellipse cx="106.664" cy="462.295" rx="3.46821" ry="3.46821" transform="rotate(-180 106.664 462.295)" fill="white"/>
<ellipse cx="106.664" cy="448.194" rx="3.46821" ry="3.46821" transform="rotate(-180 106.664 448.194)" fill="white"/>
<ellipse cx="106.664" cy="434.095" rx="3.46821" ry="3.46821" transform="rotate(-180 106.664 434.095)" fill="white"/>
<ellipse cx="90.2901" cy="462.295" rx="3.46821" ry="3.46821" transform="rotate(-180 90.2901 462.295)" fill="white"/>
<ellipse cx="90.2901" cy="448.194" rx="3.46821" ry="3.46821" transform="rotate(-180 90.2901 448.194)" fill="white"/>
<ellipse cx="90.2901" cy="434.095" rx="3.46821" ry="3.46821" transform="rotate(-180 90.2901 434.095)" fill="white"/>
<ellipse cx="304.523" cy="324.817" rx="3.46821" ry="3.46821" transform="rotate(-180 304.523 324.817)" fill="white"/>
<ellipse cx="304.523" cy="310.716" rx="3.46821" ry="3.46821" transform="rotate(-180 304.523 310.716)" fill="white"/>
<ellipse cx="304.523" cy="296.616" rx="3.46821" ry="3.46821" transform="rotate(-180 304.523 296.616)" fill="white"/>
<ellipse cx="288.148" cy="324.817" rx="3.46821" ry="3.46821" transform="rotate(-180 288.148 324.817)" fill="white"/>
<ellipse cx="288.148" cy="310.716" rx="3.46821" ry="3.46821" transform="rotate(-180 288.148 310.716)" fill="white"/>
<ellipse cx="288.148" cy="296.616" rx="3.46821" ry="3.46821" transform="rotate(-180 288.148 296.616)" fill="white"/>
<ellipse cx="271.774" cy="324.817" rx="3.46821" ry="3.46821" transform="rotate(-180 271.774 324.817)" fill="white"/>
<ellipse cx="271.774" cy="310.716" rx="3.46821" ry="3.46821" transform="rotate(-180 271.774 310.716)" fill="white"/>
<ellipse cx="271.774" cy="296.616" rx="3.46821" ry="3.46821" transform="rotate(-180 271.774 296.616)" fill="white"/>
<ellipse cx="304.523" cy="282.516" rx="3.46821" ry="3.46821" transform="rotate(-180 304.523 282.516)" fill="white"/>
<ellipse cx="304.523" cy="268.415" rx="3.46821" ry="3.46821" transform="rotate(-180 304.523 268.415)" fill="white"/>
<ellipse cx="304.523" cy="254.316" rx="3.46821" ry="3.46821" transform="rotate(-180 304.523 254.316)" fill="white"/>
<ellipse cx="288.148" cy="282.516" rx="3.46821" ry="3.46821" transform="rotate(-180 288.148 282.516)" fill="white"/>
<ellipse cx="288.148" cy="268.415" rx="3.46821" ry="3.46821" transform="rotate(-180 288.148 268.415)" fill="white"/>
<ellipse cx="288.148" cy="254.316" rx="3.46821" ry="3.46821" transform="rotate(-180 288.148 254.316)" fill="white"/>
<ellipse cx="271.774" cy="282.516" rx="3.46821" ry="3.46821" transform="rotate(-180 271.774 282.516)" fill="white"/>
<ellipse cx="271.774" cy="268.415" rx="3.46821" ry="3.46821" transform="rotate(-180 271.774 268.415)" fill="white"/>
<ellipse cx="271.774" cy="254.316" rx="3.46821" ry="3.46821" transform="rotate(-180 271.774 254.316)" fill="white"/>
<ellipse cx="304.523" cy="145.04" rx="3.46821" ry="3.46821" transform="rotate(-180 304.523 145.04)" fill="white"/>
<ellipse cx="304.523" cy="130.94" rx="3.46821" ry="3.46821" transform="rotate(-180 304.523 130.94)" fill="white"/>
<ellipse cx="304.523" cy="116.839" rx="3.46821" ry="3.46821" transform="rotate(-180 304.523 116.839)" fill="white"/>
<ellipse cx="288.148" cy="145.04" rx="3.46821" ry="3.46821" transform="rotate(-180 288.148 145.04)" fill="white"/>
<ellipse cx="288.148" cy="130.94" rx="3.46821" ry="3.46821" transform="rotate(-180 288.148 130.94)" fill="white"/>
<ellipse cx="288.148" cy="116.839" rx="3.46821" ry="3.46821" transform="rotate(-180 288.148 116.839)" fill="white"/>
<ellipse cx="271.774" cy="145.04" rx="3.46821" ry="3.46821" transform="rotate(-180 271.774 145.04)" fill="white"/>
<ellipse cx="271.774" cy="130.94" rx="3.46821" ry="3.46821" transform="rotate(-180 271.774 130.94)" fill="white"/>
<ellipse cx="271.774" cy="116.839" rx="3.46821" ry="3.46821" transform="rotate(-180 271.774 116.839)" fill="white"/>
<ellipse cx="304.523" cy="102.739" rx="3.46821" ry="3.46821" transform="rotate(-180 304.523 102.739)" fill="white"/>
<ellipse cx="304.523" cy="88.6384" rx="3.46821" ry="3.46821" transform="rotate(-180 304.523 88.6384)" fill="white"/>
<ellipse cx="304.523" cy="74.5389" rx="3.46821" ry="3.46821" transform="rotate(-180 304.523 74.5389)" fill="white"/>
<ellipse cx="288.148" cy="102.739" rx="3.46821" ry="3.46821" transform="rotate(-180 288.148 102.739)" fill="white"/>
<ellipse cx="288.148" cy="88.6384" rx="3.46821" ry="3.46821" transform="rotate(-180 288.148 88.6384)" fill="white"/>
<ellipse cx="288.148" cy="74.5389" rx="3.46821" ry="3.46821" transform="rotate(-180 288.148 74.5389)" fill="white"/>
<ellipse cx="271.774" cy="102.739" rx="3.46821" ry="3.46821" transform="rotate(-180 271.774 102.739)" fill="white"/>
<ellipse cx="271.774" cy="88.6384" rx="3.46821" ry="3.46821" transform="rotate(-180 271.774 88.6384)" fill="white"/>
<ellipse cx="271.774" cy="74.5389" rx="3.46821" ry="3.46821" transform="rotate(-180 271.774 74.5389)" fill="white"/>
<path fill-rule="evenodd" clip-rule="evenodd" d="M40.1989 157.149H50.0918V146.46H60.7803V136.567H50.0918V125.878L40.1989 125.878L40.1989 136.567H29.5096L29.5096 146.46H40.1989L40.1989 157.149Z" fill="white"/>
<path fill-rule="evenodd" clip-rule="evenodd" d="M154.934 88.695H164.827V78.0064H175.516V68.1135H164.827V57.4243L154.934 57.4243L154.934 68.1135H144.245L144.245 78.0064H154.934L154.934 88.695Z" fill="white"/>
<path fill-rule="evenodd" clip-rule="evenodd" d="M339.715 160.901H349.608V150.213H360.297V140.32H349.608V129.631L339.715 129.631L339.715 140.32H329.026L329.026 150.213H339.715L339.715 160.901Z" fill="white"/>
<path fill-rule="evenodd" clip-rule="evenodd" d="M121.96 381.161H131.853V370.473H142.541V360.58H131.853V349.891L121.96 349.891L121.96 360.58H111.27L111.27 370.473H121.96L121.96 381.161Z" fill="white"/>
<path d="M66.1793 42.5053C66.4818 41.6087 67.75 41.6087 68.0525 42.5053L68.8135 44.7606C68.9481 45.1594 69.3204 45.4293 69.7413 45.433L72.122 45.4543C73.0723 45.4628 73.4644 46.6765 72.6985 47.2393L70.7976 48.6362C70.4562 48.8871 70.3126 49.3278 70.4408 49.7317L71.1543 51.9798C71.441 52.8833 70.4149 53.6332 69.6412 53.0858L67.6869 51.703C67.3447 51.4609 66.8871 51.4609 66.545 51.703L64.5907 53.0858C63.8169 53.6332 62.7908 52.8833 63.0776 51.9798L63.791 49.7317C63.9192 49.3278 63.7757 48.8871 63.4342 48.6362L61.5333 47.2393C60.7675 46.6765 61.1595 45.4628 62.1098 45.4543L64.4906 45.433C64.9114 45.4293 65.2838 45.1594 65.4183 44.7606L66.1793 42.5053Z" fill="white"/>
<path d="M80.2596 42.5284C80.5608 41.6289 81.833 41.6289 82.1342 42.5284L82.8811 44.7586C83.015 45.1585 83.3879 45.4294 83.8095 45.4332L86.1614 45.4543C87.1099 45.4629 87.5031 46.6728 86.7407 47.2372L84.8505 48.6368C84.5115 48.8877 84.3691 49.326 84.4958 49.7282L85.2025 51.9715C85.4874 52.8762 84.4582 53.624 83.6859 53.0734L81.7707 51.7081C81.4273 51.4633 80.9665 51.4633 80.6231 51.7081L78.7079 53.0734C77.9356 53.624 76.9063 52.8762 77.1913 51.9715L77.8979 49.7282C78.0246 49.326 77.8822 48.8877 77.5433 48.6368L75.653 47.2372C74.8907 46.6728 75.2838 45.4629 76.2323 45.4543L78.5842 45.4332C79.0059 45.4294 79.3787 45.1585 79.5127 44.7586L80.2596 42.5284Z" fill="white"/>
<path d="M94.3409 42.5053C94.6435 41.6087 95.9116 41.6087 96.2141 42.5053L96.9751 44.7606C97.1097 45.1594 97.482 45.4293 97.9029 45.433L100.284 45.4543C101.234 45.4628 101.626 46.6765 100.86 47.2393L98.9593 48.6362C98.6178 48.8871 98.4742 49.3278 98.6024 49.7317L99.3159 51.9798C99.6026 52.8833 98.5765 53.6332 97.8028 53.0858L95.8485 51.703C95.5063 51.4609 95.0487 51.4609 94.7066 51.703L92.7523 53.0858C91.9786 53.6332 90.9525 52.8833 91.2392 51.9798L91.9526 49.7317C92.0808 49.3278 91.9373 48.8871 91.5958 48.6362L89.6949 47.2393C88.9291 46.6765 89.3211 45.4628 90.2714 45.4543L92.6522 45.433C93.073 45.4293 93.4454 45.1594 93.5799 44.7606L94.3409 42.5053Z" fill="white"/>
<path d="M108.484 42.5054C108.787 41.6088 110.055 41.6088 110.358 42.5054L111.119 44.7607C111.253 45.1595 111.626 45.4293 112.046 45.4331L114.427 45.4544C115.378 45.4629 115.77 46.6766 115.004 47.2394L113.103 48.6363C112.761 48.8872 112.618 49.3279 112.746 49.7318L113.459 51.9799C113.746 52.8833 112.72 53.6333 111.946 53.0858L109.992 51.703C109.65 51.461 109.192 51.461 108.85 51.703L106.896 53.0858C106.122 53.6333 105.096 52.8833 105.383 51.9799L106.096 49.7318C106.224 49.3279 106.081 48.8872 105.739 48.6363L103.838 47.2394C103.073 46.6766 103.465 45.4629 104.415 45.4544L106.796 45.4331C107.217 45.4293 107.589 45.1595 107.723 44.7607L108.484 42.5054Z" fill="white"/>
<path d="M122.565 42.5283C122.866 41.6289 124.138 41.6289 124.439 42.5283L125.186 44.7586C125.32 45.1584 125.693 45.4293 126.115 45.4331L128.467 45.4543C129.415 45.4628 129.808 46.6727 129.046 47.2372L127.156 48.6367C126.817 48.8876 126.674 49.3259 126.801 49.7281L127.508 51.9715C127.793 52.8762 126.763 53.6239 125.991 53.0733L124.076 51.7081C123.732 51.4633 123.272 51.4633 122.928 51.7081L121.013 53.0733C120.241 53.6239 119.212 52.8762 119.496 51.9715L120.203 49.7281C120.33 49.3259 120.187 48.8876 119.848 48.6367L117.958 47.2372C117.196 46.6727 117.589 45.4628 118.538 45.4543L120.889 45.4331C121.311 45.4293 121.684 45.1584 121.818 44.7586L122.565 42.5283Z" fill="white"/>
</g>
<mask id="path-221-inside-1_116_1132" fill="white">
<path fill-rule="evenodd" clip-rule="evenodd" d="M183 99C183 97.3431 184.343 96 186 96H247C248.657 96 250 97.3431 250 99V143C250 144.657 248.657 146 247 146H229V155H232C233.105 155 234 155.895 234 157V161C234 162.105 233.105 163 232 163H201C199.895 163 199 162.105 199 161V157C199 155.895 199.895 155 201 155H204V146H186C184.343 146 183 144.657 183 143V99Z"/>
</mask>
<path d="M229 146V144H227V146H229ZM229 155H227V157H229V155ZM204 155V157H206V155H204ZM204 146H206V144H204V146ZM186 94C183.239 94 181 96.2386 181 99H185C185 98.4477 185.448 98 186 98V94ZM247 94H186V98H247V94ZM252 99C252 96.2386 249.761 94 247 94V98C247.552 98 248 98.4477 248 99H252ZM252 143V99H248V143H252ZM247 148C249.761 148 252 145.761 252 143H248C248 143.552 247.552 144 247 144V148ZM229 148H247V144H229V148ZM231 155V146H227V155H231ZM229 157H232V153H229V157ZM232 157H236C236 154.791 234.209 153 232 153V157ZM232 157V161H236V157H232ZM232 161V165C234.209 165 236 163.209 236 161H232ZM232 161H201V165H232V161ZM201 161H197C197 163.209 198.791 165 201 165V161ZM201 161V157H197V161H201ZM201 157V153C198.791 153 197 154.791 197 157H201ZM201 157H204V153H201V157ZM202 146V155H206V146H202ZM186 148H204V144H186V148ZM181 143C181 145.761 183.239 148 186 148V144C185.448 144 185 143.552 185 143H181ZM181 99V143H185V99H181Z" fill="#FFEE00" mask="url(#path-221-inside-1_116_1132)"/>
<mask id="path-223-inside-2_116_1132" fill="white">
<path fill-rule="evenodd" clip-rule="evenodd" d="M10 354C10 352.343 11.3431 351 13 351H74C75.6569 351 77 352.343 77 354V398C77 399.657 75.6569 401 74 401H56V410H59C60.1046 410 61 410.895 61 412V416C61 417.105 60.1046 418 59 418H28C26.8954 418 26 417.105 26 416V412C26 410.895 26.8954 410 28 410H31V401H13C11.3431 401 10 399.657 10 398V354Z"/>
</mask>
<path d="M56 401V399H54V401H56ZM56 410H54V412H56V410ZM31 410V412H33V410H31ZM31 401H33V399H31V401ZM13 349C10.2386 349 8 351.239 8 354H12C12 353.448 12.4477 353 13 353V349ZM74 349H13V353H74V349ZM79 354C79 351.239 76.7614 349 74 349V353C74.5523 353 75 353.448 75 354H79ZM79 398V354H75V398H79ZM74 403C76.7614 403 79 400.761 79 398H75C75 398.552 74.5523 399 74 399V403ZM56 403H74V399H56V403ZM58 410V401H54V410H58ZM56 412H59V408H56V412ZM59 412H63C63 409.791 61.2091 408 59 408V412ZM59 412V416H63V412H59ZM59 416V420C61.2091 420 63 418.209 63 416H59ZM59 416H28V420H59V416ZM28 416H24C24 418.209 25.7909 420 28 420V416ZM28 416V412H24V416H28ZM28 412V408C25.7909 408 24 409.791 24 412H28ZM28 412H31V408H28V412ZM29 401V410H33V401H29ZM13 403H31V399H13V403ZM8 398C8 400.761 10.2386 403 13 403V399C12.4477 399 12 398.552 12 398H8ZM8 354V398H12V354H8Z" fill="#DBB7BB" mask="url(#path-223-inside-2_116_1132)"/>
<path d="M306 181H305V182H306V181ZM307.5 208V207H306.882L306.606 207.553L307.5 208ZM306 211L305.106 210.553L305 210.764V211H306ZM272 164C269.239 164 267 166.239 267 169H269C269 167.343 270.343 166 272 166V164ZM302 164H272V166H302V164ZM307 169C307 166.239 304.761 164 302 164V166C303.657 166 305 167.343 305 169H307ZM307 181V169H305V181H307ZM316 180H306V182H316V180ZM321 185C321 182.239 318.761 180 316 180V182C317.657 182 319 183.343 319 185H321ZM321 204V185H319V204H321ZM316 209C318.761 209 321 206.761 321 204H319C319 205.657 317.657 207 316 207V209ZM307.5 209H316V207H307.5V209ZM306.894 211.447L308.394 208.447L306.606 207.553L305.106 210.553L306.894 211.447ZM307 227V211H305V227H307ZM302 232C304.761 232 307 229.761 307 227H305C305 228.657 303.657 230 302 230V232ZM272 232H302V230H272V232ZM267 227C267 229.761 269.239 232 272 232V230C270.343 230 269 228.657 269 227H267ZM267 169V227H269V169H267Z" fill="#E66400"/>
<mask id="path-226-inside-3_116_1132" fill="white">
<path fill-rule="evenodd" clip-rule="evenodd" d="M183.5 248C187.09 248 190 250.239 190 253H203C206.866 253 210 256.134 210 260V271C218.284 271 225 277.94 225 286.5C225 295.06 218.284 302 210 302V313C210 316.866 206.866 320 203 320H164C160.134 320 157 316.866 157 313V260C157 256.134 160.134 253 164 253H177C177 250.239 179.91 248 183.5 248Z"/>
</mask>
<path d="M190 253H188V255H190V253ZM210 271H208V273H210V271ZM210 302V300H208V302H210ZM177 253V255H179V253H177ZM192 253C192 250.87 190.873 249.077 189.316 247.879C187.761 246.683 185.698 246 183.5 246V250C184.892 250 186.079 250.436 186.877 251.05C187.672 251.662 188 252.368 188 253H192ZM203 251H190V255H203V251ZM212 260C212 255.029 207.971 251 203 251V255C205.761 255 208 257.239 208 260H212ZM212 271V260H208V271H212ZM210 273C217.118 273 223 278.982 223 286.5H227C227 276.897 219.45 269 210 269V273ZM223 286.5C223 294.018 217.118 300 210 300V304C219.45 304 227 296.103 227 286.5H223ZM212 313V302H208V313H212ZM203 322C207.971 322 212 317.971 212 313H208C208 315.761 205.761 318 203 318V322ZM164 322H203V318H164V322ZM155 313C155 317.971 159.029 322 164 322V318C161.239 318 159 315.761 159 313H155ZM155 260V313H159V260H155ZM164 251C159.029 251 155 255.029 155 260H159C159 257.239 161.239 255 164 255V251ZM177 251H164V255H177V251ZM183.5 246C181.302 246 179.239 246.683 177.684 247.879C176.127 249.077 175 250.87 175 253H179C179 252.368 179.328 251.662 180.123 251.05C180.921 250.436 182.108 250 183.5 250V246Z" fill="#B580D1" mask="url(#path-226-inside-3_116_1132)"/>
<mask id="path-228-inside-4_116_1132" fill="white">
<path fill-rule="evenodd" clip-rule="evenodd" d="M101 174H84V177H79C77.3431 177 76 178.343 76 180V219C76 220.657 77.3431 222 79 222H106.42C110.798 227.652 116.754 231.252 119 232C121.5 231.333 127.7 227 132.5 219C137.3 211 139.167 196.667 139.5 191L119 184L110 187V180C110 178.343 108.657 177 107 177H101V174Z"/>
</mask>
<path d="M84 174V172H82V174H84ZM101 174H103V172H101V174ZM84 177V179H86V177H84ZM106.42 222L108.001 220.775L107.401 220H106.42V222ZM119 232L118.367 233.897L118.936 234.087L119.515 233.932L119 232ZM139.5 191L141.497 191.117L141.586 189.599L140.146 189.107L139.5 191ZM119 184L119.646 182.107L119.008 181.889L118.368 182.103L119 184ZM110 187H108V189.775L110.632 188.897L110 187ZM101 177H99V179H101V177ZM84 176H101V172H84V176ZM86 177V174H82V177H86ZM84 175H79V179H84V175ZM79 175C76.2386 175 74 177.239 74 180H78C78 179.448 78.4477 179 79 179V175ZM74 180V219H78V180H74ZM74 219C74 221.761 76.2386 224 79 224V220C78.4477 220 78 219.552 78 219H74ZM79 224H106.42V220H79V224ZM104.839 223.225C107.165 226.228 109.893 228.666 112.327 230.452C114.725 232.211 116.967 233.43 118.367 233.897L119.632 230.103C118.788 229.821 116.929 228.867 114.693 227.226C112.492 225.612 110.053 223.425 108.001 220.775L104.839 223.225ZM119.515 233.932C121.21 233.481 123.664 231.991 126.208 229.752C128.818 227.456 131.703 224.215 134.215 220.029L130.785 217.971C128.496 221.785 125.882 224.711 123.566 226.748C121.186 228.843 119.29 229.853 118.485 230.068L119.515 233.932ZM134.215 220.029C136.789 215.738 138.511 209.891 139.632 204.535C140.762 199.141 141.324 194.043 141.497 191.117L137.503 190.883C137.342 193.624 136.804 198.526 135.717 203.715C134.622 208.943 133.01 214.262 130.785 217.971L134.215 220.029ZM140.146 189.107L119.646 182.107L118.354 185.893L138.854 192.893L140.146 189.107ZM118.368 182.103L109.368 185.103L110.632 188.897L119.632 185.897L118.368 182.103ZM112 187V180H108V187H112ZM112 180C112 177.239 109.761 175 107 175V179C107.552 179 108 179.448 108 180H112ZM107 175H101V179H107V175ZM99 174V177H103V174H99Z" fill="#84BD00" mask="url(#path-228-inside-4_116_1132)"/>
<path d="M263 356.5V371H256C254.343 371 253 372.343 253 374V380C253 381.381 254.119 382.5 255.5 382.5V415C255.833 416.667 257.8 421 263 421C269 421 270.5 417.667 270.5 416H308.5C310.157 416 311.5 414.657 311.5 413V367.5L297.5 353.5H266C264.343 353.5 263 354.843 263 356.5Z" stroke="#007DBA" stroke-width="2"/>
</svg>
